# YAFF font file
# Converted from ugg.json and ugg-font.png
# Font type: shadowed

yaff: 1.0
name: Ugg Font
family: ugg
encoding: unicode

# Global metrics
pixel-size: 32

# Glyph definitions

# Character:  
u+0020:
    ..................
    ..................
    ..................
    ..................
    ..................
    ..................
    ..................
    ..................
    ..................
    ..................
    ..................
    ..................
    ..................
    ..................
    ..................
    ..................
    ..................
    ..................
    ..................
    ..................
    ..................
    ..................
    ..................
    ..................
    ..................
    ..................
    ..................
    ..................
    ..................
    ..................
    ..................

    shift-up: 1

# Character: !
u+0021:
    ...................
    ................@..
    ...............@@@.
    ...............@@..
    ...............@@..
    ..............@@...
    ..............@@...
    .............@@....
    .............@@....
    ..............@....
    ............@@.....
    ............@@.....
    ...........@@......
    ...........@@......
    ..........@........
    ...........@.......
    ...................
    ...................
    ...................
    ........@@.........
    ........@@.........
    ...................
    ...................
    ...................
    ...................
    ...................
    ...................
    ...................
    ...................
    ...................
    ...................

    shift-up: 1

# Character: "
u+0022:
    ................
    ...........@@@..
    ..........@@@@..
    ..........@@@@..
    .........@@@@...
    .........@@@@...
    ................
    ................
    ................
    ................
    ................
    ................
    ................
    ................
    ................
    ................
    ................
    ................
    ................
    ................
    ................
    ................
    ................
    ................
    ................
    ................
    ................
    ................
    ................
    ................
    ................

    shift-up: 1

# Character: #
u+0023:
    ..........................
    ...............@@...@@....
    ...............@@...@@....
    ..............@@...@......
    ..............@@...@@.....
    ............@@@@@@@@@@@...
    ..........@@@..@@@..@@@...
    ............@@...@.@......
    ............@@...@@.......
    ...........@.@...@@.......
    ...........@@...@@........
    ........@@@.@@@@@.@@@.....
    ........@@@@@@@@.@@@@.....
    ..........@@...@@.........
    .........@@....@@.........
    .........@@...@@..........
    .........@....@@..........
    ..........................
    ..........................
    ..........................
    ..........................
    ..........................
    ..........................
    ..........................
    ..........................
    ..........................
    ..........................
    ..........................
    ..........................
    ..........................
    ..........................

    shift-up: 1

# Character: $
u+0024:
    ....................
    ...............@....
    ............@@@@....
    ...........@.@..@...
    ..........@@@@.@....
    ..........@@.@@.....
    ..........@@.@@.@...
    ...........@@@......
    ...........@.@......
    ...........@.@......
    ...........@@@@.....
    .......@@.@@@@@.....
    .......@@.@@.@@.....
    .......@@@@@@@@.....
    ........@..@.@......
    .........@@@........
    .........@..........
    ....................
    ....................
    ....................
    ....................
    ....................
    ....................
    ....................
    ....................
    ....................
    ....................
    ....................
    ....................
    ....................
    ....................

    shift-up: 1

# Character: %
u+0025:
    ...........................
    ...........@@@@.....@@.....
    ..........@.@@@@...@.@.....
    ..........@.@.@@..@.@......
    .........@@@@@@@@.@........
    .........@@.@@.@@@@@.......
    ........@@....@@.@@........
    ........@@...@@..@@........
    ........@@...@@.@@.........
    ........@@..@@.@.@.........
    .........@@@@..@@..@@......
    .........@@@..@@..@.@@.....
    ..............@@.@@@.@@....
    .............@@.@@@..@@....
    .............@@.@@...@@....
    ............@@...@...@@....
    ...........@@@.@@...@@@....
    ...........@@..@@...@@.....
    ..........@@...@@..@.@.....
    ..........@@...@.@@@@......
    ..........@.....@..@.......
    ...........................
    ...........................
    ...........................
    ...........................
    ...........................
    ...........................
    ...........................
    ...........................
    ...........................
    ...........................

    shift-up: 1

# Character: &
u+0026:
    .........................
    ...............@..@@.....
    ..............@@@.@@.....
    .............@@....@@....
    .............@@....@@....
    ..................@......
    ............@....@@@.....
    ............@...@@@......
    ...............@@@.......
    .............@@.@........
    .............@@@.........
    ...........@@@@..........
    ..........@.@@@.....@@...
    .........@@@.@@....@@@...
    ........@@@...@@..@.@....
    .......@@.....@@.@@@.....
    ......@@@.....@@@@@......
    ......@@......@.@@.......
    .............@@@@........
    .......@....@@@@@........
    ......@@@@@.@@..@@.......
    .......@@@@@....@........
    .........................
    .........................
    .........................
    .........................
    .........................
    .........................
    .........................
    .........................
    .........................

    shift-up: 1

# Character: '
u+0027:
    .................
    ..............@..
    .............@@..
    .............@@..
    ............@@...
    ............@@...
    .................
    .................
    .................
    .................
    .................
    .................
    .................
    .................
    .................
    .................
    .................
    .................
    .................
    .................
    .................
    .................
    .................
    .................
    .................
    .................
    .................
    .................
    .................
    .................
    .................

    shift-up: 1

# Character: (
u+0028:
    ..................@@@
    .................@@@@
    ................@@...
    ...............@@....
    ..............@@.....
    .............@@@.....
    .............@@......
    ............@@.......
    ...........@.@.......
    ...........@@........
    ..........@@.........
    ..........@@.........
    .........@...........
    .........@@..........
    ..........@..........
    ........@@...........
    ........@@...........
    ........@@...........
    .......@@............
    .......@@............
    .......@@............
    ........@............
    ......@@.............
    ......@@.............
    ......@@.............
    ......@@.............
    ......@@.............
    ......@@.............
    ........@............
    .......@.@...........
    ........@@...........

    shift-up: 1

# Character: )
u+0029:
    ..............@@@....
    ...............@@@...
    ................@@...
    .....................
    .................@...
    .................@...
    .................@...
    .....................
    ................@....
    ................@@...
    ................@@...
    ................@@...
    ................@@...
    ...............@@....
    ...............@@....
    ................@....
    ..............@@.....
    ..............@@.....
    .............@@......
    .............@@......
    ............@........
    ............@@.......
    ...........@@........
    ...........@@........
    ..........@@.........
    .........@@..........
    ........@@@..........
    .......@@@...........
    ......@@@............
    ....@@.@.............
    ....@@@..............

    shift-up: 1

# Character: *
u+002a:
    .......................
    .......................
    ................@......
    ...........@...@@..@@..
    ...........@@..@@@@@@..
    ...........@@@@@@.@....
    ............@@@.@@.....
    .............@.@.......
    ...........@@.@@.......
    ..........@@@@@@@......
    ........@.@@@@..@@.....
    ........@@..@@...@.....
    ............@..........
    .......................
    .......................
    .......................
    .......................
    .......................
    .......................
    .......................
    .......................
    .......................
    .......................
    .......................
    .......................
    .......................
    .......................
    .......................
    .......................
    .......................
    .......................

    shift-up: 1

# Character: +
u+002b:
    ........................
    ........................
    ........................
    ........................
    ........................
    ........................
    ........................
    ................@.......
    ..............@@........
    ..............@@........
    .............@@.........
    .............@@.........
    ........@...............
    ........@@@@@@@@@@@.....
    ............@@..........
    ...........@@...........
    ...........@@...........
    ...........@@...........
    ........................
    ........................
    ........................
    ........................
    ........................
    ........................
    ........................
    ........................
    ........................
    ........................
    ........................
    ........................
    ........................

    shift-up: 1

# Character: ,
u+002c:
    ................
    ................
    ................
    ................
    ................
    ................
    ................
    ................
    ................
    ................
    ................
    ................
    ................
    ................
    ................
    ................
    ................
    ................
    ................
    .......@@.......
    .......@@.......
    ......@.@.......
    ......@@........
    ......@.........
    ................
    ................
    ................
    ................
    ................
    ................
    ................

    shift-up: 1

# Character: -
u+002d:
    .......................
    .......................
    .......................
    .......................
    .......................
    .......................
    .......................
    .......................
    .......................
    .......................
    .......................
    .......................
    ........@@@@@@@@@@.....
    ........@@@@@@@@@@.....
    .......................
    .......................
    .......................
    .......................
    .......................
    .......................
    .......................
    .......................
    .......................
    .......................
    .......................
    .......................
    .......................
    .......................
    .......................
    .......................
    .......................

    shift-up: 1

# Character: .
u+002e:
    ................
    ................
    ................
    ................
    ................
    ................
    ................
    ................
    ................
    ................
    ................
    ................
    ................
    ................
    ................
    ................
    ................
    ................
    ................
    .......@@.......
    .......@@.......
    ................
    ................
    ................
    ................
    ................
    ................
    ................
    ................
    ................
    ................

    shift-up: 1

# Character: /
u+002f:
    .......................
    ................@@.....
    ................@@.....
    ...............@@......
    ................@......
    ..............@@.......
    ..............@@.......
    .............@@........
    .............@@........
    ............@@.........
    ............@@.........
    ...........@@..........
    ...........@@..........
    ..........@@...........
    ..........@@...........
    .........@@............
    .........@@............
    ........@..............
    ........@@.............
    .......@@..............
    .......@@..............
    .......@...............
    .......................
    .......................
    .......................
    .......................
    .......................
    .......................
    .......................
    .......................
    .......................

    shift-up: 1

# Character: 0
u+0030:
    .......................
    ..............@@.@@....
    .............@.@@@@....
    ............@@@...@@...
    ...........@.@....@@...
    ...........@@.....@@...
    ..........@@......@@...
    .........@@@......@@...
    .........@@.......@@...
    .........@@.......@@...
    ........@@........@@...
    ........@@.......@.....
    ........@@.......@@....
    ........@@.......@@....
    .......@@.......@@.....
    .......@@.......@@.....
    .......@@......@@......
    .......@@.....@@@......
    ........@@...@@@.......
    ........@@..@.@........
    .........@@@@@.........
    .......................
    .......................
    .......................
    .......................
    .......................
    .......................
    .......................
    .......................
    .......................
    .......................

    shift-up: 1

# Character: 1
u+0031:
    ....................
    ..............@@@...
    .............@@.@...
    .............@@@....
    ..............@@....
    .............@......
    .............@@.....
    .............@@.....
    ............@@......
    ............@@......
    ...........@........
    ...........@@.......
    ...........@@.......
    ..........@@........
    ..........@@........
    .........@..........
    .........@@.........
    .........@@.........
    ........@@..........
    ........@@..........
    ....................
    ....................
    ....................
    ....................
    ....................
    ....................
    ....................
    ....................
    ....................
    ....................
    ....................

    shift-up: 1

# Character: 2
u+0032:
    .......................
    ............@@...@.....
    ...........@@@@.@@@....
    ..........@@@.....@@...
    ..........@@......@@...
    ..........@@......@@...
    ..........@@......@@...
    ..........@@......@@...
    .................@@....
    .................@@....
    ................@@.....
    ...............@.@.....
    ...............@@......
    ..............@@.......
    .............@.@.......
    ............@.@........
    ...........@.@.........
    ..........@@@..........
    ......@@@@.@...........
    .....@@@@@@@@..@@......
    .....@.@@..@@.@@@......
    ......@@.....@@........
    .......................
    .......................
    .......................
    .......................
    .......................
    .......................
    .......................
    .......................
    .......................

    shift-up: 1

# Character: 3
u+0033:
    .......................
    .............@@..@@....
    ............@@@@@@@@...
    ...........@@......@@..
    ...........@@......@@..
    ...........@.......@@..
    ..................@@...
    ..................@@...
    .................@@@...
    ................@.@....
    ...........@@@.@.@.....
    ...........@@@@@@@.....
    ...........@@@@.@@.....
    ................@@.....
    ................@@.....
    ................@@.....
    ...............@@......
    .....@@.......@.@......
    .....@@......@@@.......
    .....@@@...@@.@........
    ......@@@@@@@@.........
    .......................
    .......................
    .......................
    .......................
    .......................
    .......................
    .......................
    .......................
    .......................
    .......................

    shift-up: 1

# Character: 4
u+0034:
    .......................
    ...................@@..
    ..................@.@..
    .................@@.@..
    ................@@@@...
    ...............@@@@@...
    ..............@@@@@....
    .............@@@.@@....
    ............@@..@......
    ...........@@...@@.....
    ..........@@.....@.....
    .........@@....@@......
    .......@@@@@@@@@@@@....
    .......@@@@@@@@.@@@....
    ..............@@.......
    .............@.@.......
    .............@@........
    .............@@........
    ............@@.........
    ............@@.........
    ...........@@..........
    .......................
    .......................
    .......................
    .......................
    .......................
    .......................
    .......................
    .......................
    .......................
    .......................

    shift-up: 1

# Character: 5
u+0035:
    .......................
    ..............@@@@@@@..
    .............@@@@@@@@..
    .............@@........
    ............@@.........
    ...........@.@.........
    ...........@@..........
    ..........@@...........
    ..........@@@..@@......
    .........@.@@@@@@@.....
    ..........@.....@......
    .................@@....
    .................@@....
    .................@@....
    ................@......
    ........@.......@@.....
    .......@@........@.....
    .......@@......@@......
    .......@@.....@@@......
    .......@@@..@@@@.......
    ........@@@@@@.........
    .......................
    .......................
    .......................
    .......................
    .......................
    .......................
    .......................
    .......................
    .......................
    .......................

    shift-up: 1

# Character: 6
u+0036:
    .......................
    ................@@@....
    ...............@@@.....
    ..............@@@......
    .............@@@.......
    ............@@@........
    ............@@.........
    ...........@@..........
    ..........@@@..........
    ..........@@@@@@@......
    .........@..@@@@@@.....
    .........@@@....@@.....
    ........@@......@@.....
    ........@@.......@@....
    ........@@.......@@....
    ........@.......@@.....
    ................@@.....
    ................@@.....
    ........@@.....@@......
    ........@@@...@@@......
    .........@@@@@@........
    ...........@@@.........
    .......................
    .......................
    .......................
    .......................
    .......................
    .......................
    .......................
    .......................
    .......................

    shift-up: 1

# Character: 7
u+0037:
    .......................
    ..........@@@@@@@@@@...
    ..........@@@@@@@@@@...
    .................@.@...
    .................@@....
    ................@@.....
    ................@@.....
    ...............@@......
    ..............@.@......
    ..............@@.......
    .............@@........
    ..............@........
    ............@@.........
    ...........@@@.........
    ...........@@..........
    ..........@@...........
    ..........@@...........
    .........@@............
    ........@.@............
    ........@@.............
    .......@@..............
    .......................
    .......................
    .......................
    .......................
    .......................
    .......................
    .......................
    .......................
    .......................
    .......................

    shift-up: 1

# Character: 8
u+0038:
    .......................
    ..............@@@@@@...
    .............@.@@@@@@..
    ............@@@........
    ...........@@@.....@@..
    ...........@@.....@@@..
    ...........@@....@.@...
    ...........@@...@@@....
    ............@@.@@@.....
    ............@@@@.......
    ............@.@........
    ...........@@@@........
    ..........@@@.@@.......
    .........@@@..@@.......
    ........@@@....@@......
    .......@@......@@......
    ......@.@......@@......
    ......@@.......@@......
    ......@@......@.@......
    ......@.@...@@.@.......
    .......@@.@..@@........
    .......................
    .......................
    .......................
    .......................
    .......................
    .......................
    .......................
    .......................
    .......................
    .......................

    shift-up: 1

# Character: 9
u+0039:
    .......................
    .............@@@@@@....
    ............@.@@@@@....
    ...........@@@....@@...
    ...........@@.....@@...
    ..........@@......@@...
    ..........@@......@@...
    .........@@.......@@...
    .........@@......@@....
    .........@@......@@....
    ..........@@....@@.....
    ..........@@@.@@.@.....
    ...........@@.@.@......
    ............@@@@@......
    ..............@@.......
    .............@@........
    ............@@.........
    ...........@.@.........
    ..........@.@..........
    .........@@@...........
    .........@@............
    .......................
    .......................
    .......................
    .......................
    .......................
    .......................
    .......................
    .......................
    .......................
    .......................

    shift-up: 1

# Character: :
u+003a:
    ................
    ................
    ................
    ................
    ................
    ................
    ................
    ................
    ................
    ................
    ................
    ................
    .........@......
    ..........@.....
    ................
    ................
    ................
    ................
    ................
    ......@@........
    ......@@........
    ................
    ................
    ................
    ................
    ................
    ................
    ................
    ................
    ................
    ................

    shift-up: 1

# Character: ;
u+003b:
    ................
    ................
    ................
    ................
    ................
    ................
    ................
    ................
    ................
    ................
    ................
    ..........@@....
    ..........@@....
    ..........@.....
    ................
    ................
    ................
    ................
    ................
    .......@@.......
    ........@.......
    ......@@@.......
    ......@@........
    ......@.........
    ................
    ................
    ................
    ................
    ................
    ................
    ................

    shift-up: 1

# Character: <
u+003c:
    ......................
    ......................
    ......................
    ......................
    ......................
    ......................
    ......................
    ...............@@.....
    ..............@@@.....
    ............@@@@......
    ..........@@@@........
    .........@.@..........
    ........@.@...........
    .........@.@@.........
    ..........@@@@........
    ............@@@@......
    ..............@@@.....
    ................@.....
    ......................
    ......................
    ......................
    ......................
    ......................
    ......................
    ......................
    ......................
    ......................
    ......................
    ......................
    ......................
    ......................

    shift-up: 1

# Character: =
u+003d:
    ........................
    ........................
    ........................
    ........................
    ........................
    ........................
    ........................
    ........................
    ........................
    ..........@@@@@@@@@@....
    ..........@@@@@@@@@@....
    ........................
    ........@@@@@@@@@@......
    ........@@@@@@@@@@......
    ........................
    ........................
    ........................
    ........................
    ........................
    ........................
    ........................
    ........................
    ........................
    ........................
    ........................
    ........................
    ........................
    ........................
    ........................
    ........................
    ........................

    shift-up: 1

# Character: >
u+003e:
    ......................
    ......................
    ......................
    ......................
    ......................
    ......................
    ......................
    .........@@...........
    .........@@@@.........
    ..........@@@@........
    ............@@@@......
    ..............@.@.....
    ...............@.@....
    .............@@.@.....
    ............@@@@......
    ..........@@@@........
    .........@@@..........
    .........@............
    ......................
    ......................
    ......................
    ......................
    ......................
    ......................
    ......................
    ......................
    ......................
    ......................
    ......................
    ......................
    ......................

    shift-up: 1

# Character: ?
u+003f:
    ........................
    ...............@@@@@@...
    ..............@@@@@@@@..
    .............@.@....@@..
    ............@@@.....@@..
    ............@@......@@..
    .............@......@@..
    ............@......@@...
    ..................@@@...
    ..................@@....
    ................@@@.....
    ...............@.@......
    ..............@@@.......
    .............@@@........
    ............@@@.........
    .............@..........
    ........................
    ........................
    ........................
    ..........@@............
    ..........@@............
    ........................
    ........................
    ........................
    ........................
    ........................
    ........................
    ........................
    ........................
    ........................
    ........................

    shift-up: 1

# Character: @
u+0040:
    ...............................
    ...............................
    ...............................
    ...............................
    ...............................
    .................@@@@@@@@......
    ...............@@@@@@@@@.@.....
    .............@@@@.......@@.....
    ............@.@..........@@....
    ...........@@@...........@@....
    ..........@@.............@@....
    .........@@@....@@@@@....@@....
    ........@.@....@.@@@@...@@.....
    ........@@....@@@..@@...@@.....
    .......@@....@@...@@...@.@.....
    .......@@...@@...@.@...@@......
    ........@..@@@...@@...@@.......
    ......@@...@@...@.@..@.@.......
    ......@@...@@..@@.@..@@........
    ......@@...@@.@.@.@@@@.........
    ......@@...@@@@@.@@@@..........
    ......@@....@@....@............
    ......@........................
    .......@@......................
    .......@@......................
    ........@@@....................
    .........@.@@@@@...............
    ..........@@@@@................
    ...............................
    ...............................
    ...............................

    shift-up: 1

# Character: A
u+0041:
    ............................
    ..................@@@@@@@...
    ................@@@@@@@@@...
    ..............@@@@.....@@...
    .............@@@......@@@...
    ............@@@.......@@....
    ...........@@.........@@....
    ..........@@.........@@.....
    .........@@..........@@.....
    .........@@.........@@......
    ........@@..........@@......
    .........@.........@.@......
    .......@@..........@@.......
    .......@@.........@.@.......
    .......@@........@.@........
    .......@........@@.@....@...
    .......@........@@@....@@@..
    .......@.......@@@@...@@@...
    .......@@....@@@.@@..@@@....
    .......@@...@.@..@@.@@@.....
    ........@@@.@@...@@@@@......
    .........@@@......@@........
    ............................
    ............................
    ............................
    ............................
    ............................
    ............................
    ............................
    ............................
    ............................

    shift-up: 1

# Character: B
u+0042:
    .............................
    ..........@@@@@...@@@@@......
    .........@.@@@...@.@@@.@.....
    ........@@@....@@@@...@@.....
    ........@@...@@@@@....@@.....
    .............@@.@.....@@.....
    ............@..@......@@.....
    ............@.@......@@......
    ..............@.....@@@......
    ...........@.@.....@@@.......
    ...........@@....@@.@........
    ..........@.@..@..@@@@@......
    ..........@@...@@....@.@.....
    .........@@@..........@@.....
    .........@@...........@@.....
    .........@@...........@@.....
    ........@@............@@.....
    ........@@...........@@......
    .......@@@@.........@@@......
    .......@@@@.......@@@@.......
    ........@.@@@@@@@@@@.........
    .......@...@@@@@@@...........
    .............................
    .............................
    .............................
    .............................
    .............................
    .............................
    .............................
    .............................
    .............................

    shift-up: 1

# Character: C
u+0043:
    .........................
    ................@@@.@@...
    ...............@.@@@@@...
    ..............@@@....@@..
    .............@@......@@..
    ............@@.......@@..
    ...........@@.......@@...
    ..........@@@......@@@...
    ..........@@......@@@....
    .........@@@......@@.....
    .........@@..............
    ..........@..............
    ........@@...............
    ........@@...............
    ........@@...............
    ........@@...........@...
    ........@@..........@@@..
    ........@@.........@.@...
    ........@@........@@@....
    .........@@.....@@@@.....
    .........@@@@@@@@@.......
    ...........@@@@@@........
    .........................
    .........................
    .........................
    .........................
    .........................
    .........................
    .........................
    .........................
    .........................

    shift-up: 1

# Character: D
u+0044:
    ..............................
    .............@@@@@@@@.........
    ...........@@.@@@@@@@.@.......
    ..........@@@....@@..@@@......
    ..........@@....@@.....@@.....
    ..........@@....@@.....@.@....
    ..........@@...@@.......@@....
    ...............@@.......@@....
    ..............@@........@.....
    ..............@@........@.....
    .............@.@........@.....
    .............@@.........@@....
    .............@@.........@@....
    ............@@..........@@....
    ............@@.........@@.....
    ............@@.........@@.....
    ...........@@.........@@......
    ...........@@........@@@......
    .......@@@@@........@@@.......
    ......@@@@.@@.....@@@@........
    ......@@@@@@.@@@@.@@..........
    ......@@@@...@@@@.............
    ..............................
    ..............................
    ..............................
    ..............................
    ..............................
    ..............................
    ..............................
    ..............................
    ..............................

    shift-up: 1

# Character: E
u+0045:
    .........................
    ..............@@@@@@.....
    .............@.@@@@@@....
    ............@.@....@@....
    ............@@......@....
    ............@@...........
    ............@@...........
    ............@@...........
    ............@@...........
    ............@@...........
    ............@.@@@@.......
    ..........@@@@.@@@.......
    .........@@@..@@@@.......
    ........@@...............
    .......@@................
    ......@.@............@...
    ......@@............@@...
    ......@@...........@@....
    ......@@.........@@@.....
    .......@@.......@@@......
    .......@@@@@@@@@@@.......
    .........@@.@@@@.........
    .........................
    .........................
    .........................
    .........................
    .........................
    .........................
    .........................
    .........................
    .........................

    shift-up: 1

# Character: F
u+0046:
    ...........................
    ............@@@@@@@........
    ...........@@@@@@@@@@@@@@@@
    ...........@@......@@.@@@@@
    ...........@@.......@@.....
    ...........@@@.....@@......
    ...................@@......
    ..................@@.......
    ..................@@.......
    .................@@@.......
    .................@@........
    .............@@@@@@@@@.....
    .............@@@@@@@@@.....
    ................@@.........
    ................@@.........
    ...............@@..........
    ...............@@..........
    ..............@............
    .......@@.....@@...........
    .......@@@...@@............
    ........@.@@@@@............
    .........@@@@..............
    ...........................
    ...........................
    ...........................
    ...........................
    ...........................
    ...........................
    ...........................
    ...........................
    ...........................

    shift-up: 1

# Character: G
u+0047:
    .................@@@...........
    ................@@@@...........
    ...............@@..@...........
    ...............@@.@@......@@...
    ...............@.@@@...@@@.@...
    ................@..@@@@.@@@@...
    .................@@@@@.....@...
    ................@@.......@@....
    ...............@@@.......@@....
    ...............@@........@@....
    ..............@@........@@.....
    .............@.@........@@.....
    ............@@@........@.......
    ............@@.........@@......
    ...........@@.........@@.......
    ..........@@.........@.@...@@..
    .........@@@@........@@...@@@..
    ........@@@.@.@@....@@...@.@...
    .......@@.@.@@@@@@.@@@..@@@....
    .....@@@...@@@.@@...@@@@@@.....
    ...@@@@.....@.@@@@@@@@@@.......
    ...@@@.......@@@@..............
    ...............................
    ...............................
    ...............................
    ...............................
    ...............................
    ...............................
    ...............................
    ...............................
    ...............................

    shift-up: 1

# Character: H
u+0048:
    .............................
    ..........@@@@@.........@@...
    ........@@@@@@..........@@...
    ........@@...@.........@.@...
    ........@@...@@........@@....
    .............@@........@@....
    ............@@........@@.....
    ............@@........@@.....
    ...........@.........@@......
    ...........@@........@@......
    ...........@@.......@.@......
    ..........@@@@@@@@@@.@.......
    ..........@.@@@@@@@@@@.......
    .........@.@.......@@........
    .........@@........@@........
    ..........@........@@....@...
    ........@@........@@....@@...
    ........@@........@@...@@@...
    .......@@.........@@..@@@....
    .......@@.........@@@@@@.....
    ........@.........@..@.......
    .............................
    .............................
    .............................
    .............................
    .............................
    .............................
    .............................
    .............................
    .............................
    .............................

    shift-up: 1

# Character: I
u+0049:
    .........................
    ...................@.@...
    ..................@@@@...
    .................@@..@...
    ................@@...@...
    ................@@..@@...
    ................@@..@@...
    ...............@@...@@...
    ...............@@..@.@...
    ...................@@....
    ..............@@...@@....
    ..............@@..@@.....
    ..............@@..@@.....
    ..............@@.@@......
    ..............@@@@@......
    .............@@.@@.......
    ......@......@.@@........
    .....@@......@.@.........
    .....@@......@.@.........
    .....@.@...@@@@@.........
    ......@.@@@@@.@@@........
    ........@@@....@@........
    .........................
    .........................
    .........................
    .........................
    .........................
    .........................
    .........................
    .........................
    .........................

    shift-up: 1

# Character: J
u+004a:
    ........................
    .............@@@@@......
    ............@@@@@@@.....
    ...........@@.....@@....
    ..........@@......@@....
    ...........@......@.....
    .........@@.......@@....
    .........@@.......@@....
    .........@@.......@@....
    .........@@......@@.....
    .........@@......@@.....
    .........@@.....@.......
    .........@@.....@@......
    .........@@.....@@......
    .........@.@...@@.......
    ..........@@...@@...@...
    ..........@@..@.@..@@...
    ...........@@.@@..@@....
    ...........@@.@@@@@.....
    ............@@@@.@......
    ............@@.@@.......
    ...........@@.@.........
    .........@@@@@..........
    .......@@@@..@..........
    ......@.@..@@...........
    .....@@@..@@@...........
    .....@@...@@............
    ....@@...@@@............
    ....@@@.@@@.............
    .....@..@@..............
    ........................

    shift-up: 1

# Character: K
u+004b:
    ...........................
    ..........@@@@@.........@..
    ........@@@@@@.........@...
    ........@@...@........@.@..
    ........@@...@@......@.@...
    .............@@.....@@@....
    ............@@.....@@@.....
    ............@@...@@@.......
    ...........@@@..@.@........
    ...........@@.@@@@.........
    ............@@@@...........
    ..........@...@@...........
    ..........@@@.@@...........
    .........@@....@@..........
    .........@@....@@..........
    ..........@....@@......@...
    ........@@.....@......@@...
    ........@@......@@...@@@...
    .......@@.......@@..@@@....
    .......@@.......@@.@.@.....
    ........@........@@@@......
    ...........................
    ...........................
    ...........................
    ...........................
    ...........................
    ...........................
    ...........................
    ...........................
    ...........................
    ...........................

    shift-up: 1

# Character: L
u+004c:
    ............................
    .....................@..@...
    ....................@@@@....
    ...................@@..@....
    .........@........@@..@@@...
    ........@@........@@.@.@....
    .........@@@@....@.@@@@.....
    ..........@@@.....@@@.......
    .............@@@@.@.........
    ................@@..........
    ................@@..........
    ...............@@...........
    ...............@@...........
    ..............@.@...........
    ..............@@............
    ........@@....@@........@@..
    ......@.@.@@.@@........@.@..
    .....@@@..@@@.@.......@@@...
    .....@@....@@@@......@@@....
    .....@@...@@@@@@@...@@@.....
    .....@.@@@@@...@@.@@@@......
    ......@@@@.......@@@........
    ............................
    ............................
    ............................
    ............................
    ............................
    ............................
    ............................
    ............................
    ............................

    shift-up: 1

# Character: M
u+004d:
    ...................................
    ..........@@@@@...@@.@@....@..@....
    .........@@@@@.@.@@@.@@..@@@@.@@...
    ........@@.....@@@...@@.@.@...@@...
    ........@@...@@@@....@@@.@....@@...
    .............@@@@....@@@@.....@@...
    ............@..@.....@.@.....@@....
    ............@.@......@@......@@....
    .............@......@.@.......@....
    ...........@.@......@@......@@.....
    ...........@@......@........@@.....
    ..........@@.......@@......@@......
    ..........@@.......@@......@@......
    .........@@.......@@......@........
    .........@@.......@@......@@.......
    ..........@......@@........@...@@..
    ........@@.......@@......@@...@.@..
    ........@@.......@@......@@..@@@...
    .......@@.......@@.......@@.@@@....
    .......@@.......@@.........@@@.....
    ........@......@@........@@@@......
    .......@..................@@.......
    ...................................
    ...................................
    ...................................
    ...................................
    ...................................
    ...................................
    ...................................
    ...................................
    ...................................

    shift-up: 1

# Character: N
u+004e:
    ............................
    ..........@@@@@....@@.@.....
    .........@@@@@...@@@@@@@....
    ........@@...@..@@@...@@....
    ........@@...@@@.@....@@....
    .............@@@@.....@@....
    ............@.@@.....@......
    ............@.@......@@.....
    ...........@.@.......@@.....
    ...........@........@@......
    ...........@@.......@@......
    ..........@@.......@.@......
    ..........@@.......@@.......
    .........@@........@@.......
    .........@@.......@@........
    ..........@.......@@...@@...
    ........@@.......@.....@@...
    ........@@.......@@...@@....
    .......@@........@@..@@.....
    .......@@.........@@@@......
    ........@........@@@@.......
    .......@..........@@........
    ............................
    ............................
    ............................
    ............................
    ............................
    ............................
    ............................
    ............................
    ............................

    shift-up: 1

# Character: O
u+004f:
    ...........................
    ...............@@@..@@.....
    ..............@@@@.@@@@....
    ............@@@...@@@.@@...
    ............@@....@@..@@...
    ...........@@.....@@..@@@@.
    ..........@@......@@..@@@@.
    ..........@@......@@..@@.@.
    .........@@........@@@@@@..
    .........@@.........@@.@...
    ........@............@@....
    ........@@...........@@....
    ........@@..........@@@....
    ........@@..........@@.....
    ........@@.........@.@.....
    ........@@.........@@......
    ........@@........@@@......
    ........@@.......@.@.......
    ........@.......@.@........
    .........@@....@@@.........
    ..........@@@@.@@..........
    ...........@@@@............
    ...........................
    ...........................
    ...........................
    ...........................
    ...........................
    ...........................
    ...........................
    ...........................
    ...........................

    shift-up: 1

# Character: P
u+0050:
    .........................
    ..........@@@@@...@@.@@..
    .........@@@@@.@.@@@@@@..
    ........@@.....@@@.......
    ........@@...@@@@........
    .............@@@@........
    ............@..@.....@...
    ............@.@......@@..
    .............@.......@@..
    ...........@.@......@@@..
    ...........@@.......@@...
    ..........@.@......@@....
    ..........@@......@.@....
    .........@.@....@@@@.....
    .........@@@@@@@@@.......
    .........@@@@@@@.........
    ........@@...............
    ........@@...............
    .......@@................
    .......@@................
    ........@................
    .......@.................
    .........................
    .........................
    .........................
    .........................
    .........................
    .........................
    .........................
    .........................
    .........................

    shift-up: 1

# Character: Q
u+0051:
    ..........................
    ..............@@..@@......
    .............@@@..@@@.....
    ............@@.....@@.....
    ...........@@.......@@....
    ..........@@........@@....
    ..........@@........@@....
    .........@@.........@@....
    .........@@.........@@....
    ..........@........@......
    ........@@.........@@.....
    ........@@.........@@.....
    ........@@........@@......
    ........@@.......@.@......
    ..........@......@@.......
    .........@@.....@@....@@..
    ...............@@@...@.@..
    ..............@@@...@@@...
    ........@@@@@@@@...@@@....
    .......@@@@..@@...@@@.....
    .......@@@.@@@@.@.@@......
    ........@@@....@@@........
    ..........................
    ..........................
    ..........................
    ..........................
    ..........................
    ..........................
    ..........................
    ..........................
    ..........................

    shift-up: 1

# Character: R
u+0052:
    ...........................
    ..........@@@@@...@@@@.....
    .........@.@@@.@@@@@@@@....
    ........@@....@@@@...@@....
    ........@@...@@@@..........
    .............@.@.....@@....
    ............@..@.....@@....
    ............@.@......@@....
    .............@......@@.....
    ...........@.@.....@@@.....
    ...........@@.....@@@......
    ..........@@@...@@.@.......
    ..........@.@@@@@@@........
    ..........@@@@@@...........
    .........@@@.@.............
    .........@@.@@.........@@..
    ........@@..@@........@@@..
    ........@@...@@......@@@...
    .......@@@...@.@....@@@....
    .......@@.....@@@..@@@.....
    .......@@......@.@@@@......
    .......@.........@.........
    ...........................
    ...........................
    ...........................
    ...........................
    ...........................
    ...........................
    ...........................
    ...........................
    ...........................

    shift-up: 1

# Character: S
u+0053:
    .................@@........
    ...............@@@@@.......
    ...............@@.@@.......
    ..............@..@@@.......
    ..............@@.@@........
    ..............@@@@.........
    ..............@@.@.........
    ..............@.@..........
    ..............@.@..........
    .............@@@@..........
    .............@@.@@.........
    ............@@..@.@........
    ...........@.@...@@........
    ...........@@....@@@.......
    ..........@@......@@.......
    .........@.@......@....@...
    .........@@.........@.@@...
    ........@@..........@@@@...
    .......@.@........@@@@@....
    .......@@..@@@@@@@..@......
    ......@@...@@@@@@.@........
    ......@@...@@@@.@@.........
    ............@@@............
    ...........................
    ...........................
    ...........................
    ...........................
    ...........................
    ...........................
    ...........................
    ...........................

    shift-up: 1

# Character: T
u+0054:
    ....................
    ........@@@@@@@.....
    .......@@@@@@@.@@@@@
    ......@@.......@@@@@
    ......@@.......@@...
    ......@@@.....@.....
    ........@.....@@....
    ..............@@....
    .............@@.....
    .............@@.....
    ............@@......
    ............@@......
    ...........@@@......
    ...........@@.......
    ...........@@.......
    ..........@@........
    ..........@@........
    .........@@.........
    .........@@.........
    ........@.@.........
    ........@@..........
    ....................
    ....................
    ....................
    ....................
    ....................
    ....................
    ....................
    ....................
    ....................
    ....................

    shift-up: 1

# Character: U
u+0055:
    ............................
    .........@@@@@..............
    .......@@@@@@@@........@@...
    .......@@.....@........@@...
    .......@....@@........@@....
    ............@@.......@.@....
    ............@@.......@@.....
    ...........@@.......@.@.....
    ...........@@.......@@......
    ..........@@.......@.@......
    ..........@@................
    .........@@.......@.@.......
    .........@@......@..@.......
    .........@@......@@@........
    ........@@......@@@@........
    ........@@.....@@@.@...@@...
    ........@@....@.@@@....@@...
    .......@@....@.@.@@...@@....
    .......@@...@.@..@@..@@.....
    .......@@..@@@...@@@@@......
    .......@.@.@@....@..@.......
    ........@@@.......@@........
    ............................
    ............................
    ............................
    ............................
    ............................
    ............................
    ............................
    ............................
    ............................

    shift-up: 1

# Character: V
u+0056:
    .........................
    .........@@@@..........@.
    .......@@@@@@@.........@.
    .......@@...@..........@.
    .......@....@@........@@.
    ............@@........@@.
    ............@@........@@.
    ...........@@@.......@...
    ...........@@........@@..
    ...........@@.......@@@..
    ............@.......@@...
    ..........@@.......@@....
    ..........@@.......@@....
    ..........@@......@@.....
    .........@@......@@......
    .........@@.....@@@......
    .........@@....@.@.......
    ..........@...@@@........
    .............@.@.........
    ............@@@..........
    .........@@@@@...........
    .........@@@.............
    .........................
    .........................
    .........................
    .........................
    .........................
    .........................
    .........................
    .........................
    .........................

    shift-up: 1

# Character: W
u+0057:
    .................................
    .......@@@@@..........@........@.
    ......@@@@@@@........@@@.......@@
    .....@@@...@@.......@@@@.......@@
    .....@@....@@.......@@.@.......@@
    ...........@@......@.@@.......@.@
    ............@......@@@@.......@@.
    ..........@@.......@@@........@@.
    ..........@@......@..@.......@@..
    ..........@@......@.@........@@..
    .........@@.......@@........@@...
    .........@@......@.@........@@...
    .........@@......@.@.......@@....
    ..........@.....@.........@@@....
    ........@@.....@.@@.......@@.....
    ........@@.....@@@@......@@......
    ........@@....@@.@@.....@@.......
    ........@@...@@@.@@....@@........
    ........@@..@.@..@@...@@@........
    ........@@.@@@...@@.@@@..........
    ........@@@@@....@@.@@...........
    .........@@........@.............
    .................................
    .................................
    .................................
    .................................
    .................................
    .................................
    .................................
    .................................
    .................................

    shift-up: 1

# Character: X
u+0058:
    ............................
    .........@@..@@........@@...
    ........@@@@.@.@......@@@...
    ........@@....@@.....@@@....
    ........@@....@@....@@@.....
    ..............@@...@.@......
    ..............@@..@@@.......
    ..............@@..@@........
    ..............@@.@@.........
    ...............@@@..........
    ................@@..........
    ..............@.@...........
    .............@@.@...........
    .............@@@@...........
    ............@@.@@...........
    ...........@@..@@.......@...
    ..........@@@..@@......@@...
    .........@@@...@......@@....
    ........@@@.....@@...@@@....
    .......@@@......@@..@@@.....
    ......@@@........@@.@.......
    ......@@..........@@........
    ............................
    ............................
    ............................
    ............................
    ............................
    ............................
    ............................
    ............................
    ............................

    shift-up: 1

# Character: Y
u+0059:
    ............................
    ..........@@@@@.............
    .........@@@@@@@........@@..
    ........@@....@@........@@..
    ........@@....@@.......@.@..
    .............@@........@@...
    .............@@.......@.@...
    .............@@.......@@....
    ............@@.......@.@....
    ............@@......@.......
    ...........@@.......@.@.....
    ...........@@......@..@.....
    ..........@.@......@.@......
    ..........@@......@@.@......
    ..........@@.....@.@@.......
    .........@@.....@@@@@...@@..
    .........@@....@@@@@...@.@..
    ..........@....@@.@@..@.@...
    ........@....@@@.@@..@.@....
    ........@@..@@@..@@@@@@.....
    .........@@@@@..@@@.@.......
    ..........@@....@.@@........
    ..............@.@@..........
    ............@@@@@...........
    ..........@.@@@@............
    ........@@@@..@@............
    .......@@@...@@.............
    .......@@...@@..............
    ........@..@@@..............
    .......@@@@@@...............
    ........@@@.................

    shift-up: 1

# Character: Z
u+005a:
    .........................
    .............@@@@@@@.....
    ............@.@@@@@.@....
    ..........@@@......@@@...
    ..........@@........@@...
    .........@@.........@@...
    .........@@.........@@...
    ....................@@...
    ....................@@...
    ...................@@....
    ...................@@....
    ..................@@.....
    .................@@@.....
    ................@@@......
    ...............@@@.......
    .........@@@..@.@....@@..
    .......@@@@@.@@@....@@@..
    .......@@@@@.@@@...@@@...
    .......@@@@@..@@..@@@....
    ..............@..@.@.....
    ................@.@......
    ..............@.@@.......
    .............@.@.........
    ...........@@@@@.........
    .........@@@@@@..........
    ........@@@..@@..........
    .......@@@..@@...........
    ......@@...@@............
    .......@.@@@.............
    .......@@@@..............
    ......@@@................

    shift-up: 1

# Character: [
u+005b:
    .......................
    ...............@@@@@...
    ...............@@@@@@..
    ...............@@......
    ..............@@.......
    ..............@@.......
    .............@@........
    .............@@........
    ............@@.........
    ............@@.........
    ............@@.........
    ...........@@..........
    ...........@@..........
    ..........@@...........
    ..........@@...........
    ...........@...........
    .........@@............
    .........@@............
    ........@@.............
    ........@@.............
    .......@.@.............
    .......@@..............
    .......@@..............
    ......@@...............
    ......@@...............
    .....@.................
    .....@@................
    ......@................
    ....@@@................
    ....@..................
    .......................

    shift-up: 1

# Character: \
u+005c:
    .......................
    .....@@................
    .....@@................
    ......@@...............
    ......@@...............
    .......@@..............
    .......@@..............
    .......@.@.............
    ........@@.............
    ........@@@............
    .........@@............
    .........@.............
    ..........@@...........
    ..........@@...........
    ...........@@..........
    ...........@@..........
    ............@@.........
    ............@@.........
    .............@@........
    .............@@........
    ..............@@.......
    ..............@@.......
    .......................
    .......................
    .......................
    .......................
    .......................
    .......................
    .......................
    .......................
    .......................

    shift-up: 1

# Character: ]
u+005d:
    .......................
    ................@@@@@..
    ................@@@.@..
    ...................@@..
    ..................@@...
    ..................@@...
    ..................@@...
    .................@@....
    .................@@....
    ................@@.....
    ................@@.....
    ................@@.....
    ...............@@......
    ...............@@......
    ..............@@.......
    ..............@@.......
    .............@@@.......
    .............@@........
    ..............@........
    ............@@.........
    ............@@.........
    ...........@@..........
    ...........@@..........
    ............@..........
    ..........@@...........
    ..........@@...........
    .........@@............
    .........@@............
    ........@.@............
    .........@.............
    .......................

    shift-up: 1

# Character: ^
u+005e:
    ........................
    ........................
    .............@@.........
    .............@@.........
    ............@@@@........
    ............@@@@........
    ...........@@..@@.......
    ...........@@..@@.......
    ..........@@....@@......
    ..........@@....@@......
    .........@@......@@.....
    .........@@......@@.....
    ........@@........@@....
    ........@@........@@....
    ........................
    ........................
    ........................
    ........................
    ........................
    ........................
    ........................
    ........................
    ........................
    ........................
    ........................
    ........................
    ........................
    ........................
    ........................
    ........................
    ........................

    shift-up: 1

# Character: _
u+005f:
    ..........................
    ..........................
    ..........................
    ..........................
    ..........................
    ..........................
    ..........................
    ..........................
    ..........................
    ..........................
    ..........................
    ..........................
    ..........................
    ..........................
    ..........................
    ..........................
    ..........................
    ..........................
    ..........................
    ..........................
    ..........................
    ..........................
    .......@@@@@@@@@@@@@@@@...
    .......@@@@@@@@@@@@@@@@...
    ..........................
    ..........................
    ..........................
    ..........................
    ..........................
    ..........................
    ..........................

    shift-up: 1

# Character: `
u+0060:
    ...................
    ...................
    ..........@@.......
    ..........@@@@.....
    ............@@@....
    .............@@....
    ...................
    ...................
    ...................
    ...................
    ...................
    ...................
    ...................
    ...................
    ...................
    ...................
    ...................
    ...................
    ...................
    ...................
    ...................
    ...................
    ...................
    ...................
    ...................
    ...................
    ...................
    ...................
    ...................
    ...................
    ...................

    shift-up: 1

# Character: a
u+0061:
    ......................
    ......................
    ......................
    ......................
    ......................
    ......................
    ......................
    ......................
    ......................
    ......................
    ......................
    ...........@@@@@......
    ..........@@@@@.......
    ........@@@...@@......
    ........@@...@........
    .......@@....@@...@@..
    ......@@@...@@...@@@..
    ......@@...@.@..@@@...
    ......@@...@.@.@@@....
    ......@@.@@@.@@@@.....
    ......@@@@@.@@@@......
    ......................
    ......................
    ......................
    ......................
    ......................
    ......................
    ......................
    ......................
    ......................
    ......................

    shift-up: 1

# Character: b
u+0062:
    ......................
    ...............@@@....
    ..............@@@@....
    .............@.@@@....
    .............@@.@@....
    ............@@.@@.....
    ............@@@@@.....
    ...........@.@@@......
    ...........@@@@.......
    ...........@@@@.......
    ..........@..@........
    ..........@.@@@@......
    .........@.@.@@@......
    .........@@.@@@.......
    ........@.@.@@@.......
    .......@.@..@@@@..@...
    .......@@@..@@@@.@@...
    ........@@...@.@@@@...
    ........@@..@@@@@.....
    ........@@.@@@........
    ........@.@.@.........
    ......................
    ......................
    ......................
    ......................
    ......................
    ......................
    ......................
    ......................
    ......................
    ......................

    shift-up: 1

# Character: c
u+0063:
    ...................
    ...................
    ...................
    ...................
    ...................
    ...................
    ...................
    ...................
    ...................
    ...................
    ...................
    ..........@@@......
    .........@.@@@.....
    ........@@@.@@.....
    .......@@@..@@.....
    .......@@......@...
    ........@.....@@@..
    ......@@.....@@@...
    ......@@....@@@....
    ......@@..@@@@.....
    .......@@@.@@......
    ........@@.........
    ...................
    ...................
    ...................
    ...................
    ...................
    ...................
    ...................
    ...................
    ...................

    shift-up: 1

# Character: d
u+0064:
    ......................
    ......................
    ......................
    ..................@@..
    ..................@@..
    .................@@...
    .................@@...
    .................@@...
    ................@@....
    ................@@....
    ...............@@.....
    ............@@@@@.....
    ..........@@@@@.......
    .........@@@..@@......
    ........@@...@........
    .......@@....@@...@@..
    ......@.@...@.@..@.@..
    ......@@...@@@..@@@...
    ......@@...@@@.@@@....
    ......@@.@@@@@@@@.....
    ......@.@.@.@..@......
    ......................
    ......................
    ......................
    ......................
    ......................
    ......................
    ......................
    ......................
    ......................
    ......................

    shift-up: 1

# Character: e
u+0065:
    ...................
    ...................
    ...................
    ...................
    ...................
    ...................
    ...................
    ...................
    ...................
    ...................
    ...................
    ..........@@@......
    .........@@@@@.....
    ........@@@.@@.....
    .......@@@.@@......
    .......@@@.@...@@..
    ........@@@...@@@..
    ......@@.....@.@...
    ......@@....@.@....
    ......@@..@@@@.....
    .......@@@.@.......
    ........@@.........
    ...................
    ...................
    ...................
    ...................
    ...................
    ...................
    ...................
    ...................
    ...................

    shift-up: 1

# Character: f
u+0066:
    .................
    ..............@@@
    .............@@@@
    ............@@@.@
    ............@@.@.
    .............@.@@
    ...........@@.@.@
    ...........@@.@@.
    ..........@@.@@..
    ..........@@@@@..
    ...........@.@...
    .........@@@@....
    .........@.@.....
    ........@.@......
    ........@@.......
    .......@.@...@@..
    .......@@...@@@..
    .......@@..@@@...
    ......@@..@@@....
    ......@@@@.@.....
    .....@.@@@@......
    .....@@@.........
    ....@@@@.........
    ....@@.@.........
    ....@@..@........
    ...@@..@@........
    ...@@..@@........
    ...@@.@@.........
    ....@.@@.........
    ...@@@@@.........
    ...@@@@..........

    shift-up: 1

# Character: g
u+0067:
    .....................
    .....................
    .....................
    .....................
    .....................
    .....................
    .....................
    .....................
    .....................
    .....................
    .....................
    ...........@@@@@.....
    ..........@@@@@@.....
    .........@@@..@@.....
    ........@@...@@......
    .......@@...@.@..@...
    ......@.@...@...@@@..
    ......@@...@.@.@@@...
    ......@@..@..@@@@....
    ......@@.@.@..@......
    ......@.@@@.@@.......
    ........@@.@.........
    .......@@@@@.........
    ......@.@@@..........
    ......@@.@@..........
    .....@@.@............
    ....@...@@...........
    ....@@.@@@...........
    ....@@.@@............
    ....@@@@.............
    .....@@..............

    shift-up: 1

# Character: h
u+0068:
    .......................
    ...............@@@.....
    ..............@.@......
    ..............@@@......
    .............@@.@@.....
    .............@@@@@.....
    ............@@@@@......
    ............@@@@.......
    ...........@@@@@.......
    ...........@@.@........
    .............@.........
    ..........@.@@@@.......
    ..........@@@@@@@......
    .........@.@@@.@@......
    ........@..@...@@......
    .......@@..@..@@...@...
    .......@@.@...@@..@@...
    ........@@...@@..@@@...
    .......@@....@@.@.@....
    .......@@....@@@@@.....
    ........@....@@@@......
    .......@......@........
    .......................
    .......................
    .......................
    .......................
    .......................
    .......................
    .......................
    .......................
    .......................

    shift-up: 1

# Character: i
u+0069:
    .................
    .................
    .................
    .................
    .................
    .................
    .................
    ............@@...
    ............@....
    ............@@...
    .................
    ..........@@.....
    ..........@@.....
    .........@.......
    ........@.@......
    .......@.....@...
    .......@@@..@@@..
    .......@.@.@.@...
    .......@@.@@@....
    .......@@@.@.....
    .......@@@@......
    ........@@.......
    .................
    .................
    .................
    .................
    .................
    .................
    .................
    .................
    .................

    shift-up: 1

# Character: j
u+006a:
    .................
    .................
    .................
    .................
    .................
    .................
    .................
    .................
    .............@...
    ............@@...
    .................
    ..........@@.....
    .........@@@.....
    .........@.@.....
    ........@.@......
    .......@@@@..@...
    .......@@@..@@...
    ........@@.@@....
    ........@@@@.....
    .......@@@@......
    .......@.@.......
    ......@@@........
    ....@@.@.........
    ...@.@@..........
    ..@@@@@..........
    .@.@@.@..........
    .@@.@@...........
    @@.@@@...........
    @@.@@............
    @@@@.............
    .@@..............

    shift-up: 1

# Character: k
u+006b:
    ......................
    ...............@@@....
    ..............@.@.@...
    ..............@@@@....
    .............@@.@@....
    .............@@@@.....
    ............@@@.@.....
    ............@@@@......
    ...........@@@@.......
    ...........@@@........
    .............@........
    ..........@.@@@@......
    ..........@@@@@.@.....
    .........@@@@...@.....
    ........@..@..@@......
    .......@@.@.@@@...@...
    .......@@.@@@@...@@...
    ........@@@@....@@....
    .......@@@@@...@@@....
    .......@@.@.@.@@@.....
    ........@..@.@@.......
    .......@....@@........
    ......................
    ......................
    ......................
    ......................
    ......................
    ......................
    ......................
    ......................
    ......................

    shift-up: 1

# Character: l
u+006c:
    ..................
    ..............@@@.
    ..............@@@@
    .............@@@.@
    ............@@@@@.
    ............@@@@@.
    ...........@.@@@..
    ...........@@@@...
    ...........@@@@...
    ..........@@@@....
    ..........@.@.....
    .........@..@.....
    .........@.@......
    .........@@.......
    ........@@........
    .......@.@....@...
    .......@.@...@@...
    .......@....@@....
    .......@@..@@.....
    .......@@.@@......
    .......@@@@.......
    ..................
    ..................
    ..................
    ..................
    ..................
    ..................
    ..................
    ..................
    ..................
    ..................

    shift-up: 1

# Character: m
u+006d:
    .............................
    .............................
    .............................
    .............................
    .............................
    .............................
    .............................
    .............................
    .............................
    .............................
    .............................
    ...........@@..@@@...@@@@....
    .........@@@.@@@@@@.@@@@@....
    .........@@.@@.@.@@@.@.@@....
    ........@@....@..@@.@..@@....
    .......@@..@.@.....@..@....@@
    .......@@..@@...@.@...@@..@.@
    ..........@.@...@@....@@.@@@.
    ..........@@....@@...@@.@.@..
    .........@.@...@@....@@@@@...
    .........@@....@@....@.@@....
    .............................
    .............................
    .............................
    .............................
    .............................
    .............................
    .............................
    .............................
    .............................
    .............................

    shift-up: 1

# Character: n
u+006e:
    ..........................
    ..........................
    ..........................
    ..........................
    ..........................
    ..........................
    ..........................
    ..........................
    ..........................
    ..........................
    ..........................
    ...........@@...@@@.......
    ..........@@@@.@@@@@......
    .........@@.@@@@..@@......
    ........@@...@@..@@.......
    .......@@..@.@...@@...@...
    .......@@..@....@@@..@@...
    ..........@.@...@@..@@....
    ..........@@.....@.@@.....
    .........@.@...@@@@@......
    .........@@....@..@.......
    ..........................
    ..........................
    ..........................
    ..........................
    ..........................
    ..........................
    ..........................
    ..........................
    ..........................
    ..........................

    shift-up: 1

# Character: o
u+006f:
    .....................
    .....................
    .....................
    .....................
    .....................
    .....................
    .....................
    .....................
    .....................
    .....................
    .....................
    ..........@@@@@......
    .........@@@@@@......
    ........@@@@@@.......
    .......@.@@@.@@......
    .......@@.@@.@@..@...
    ........@.@@.@@.@@...
    ......@@..@@@@@@@....
    ......@@...@.@@@.....
    ......@@..@.@@@......
    .......@@@@@.........
    .....................
    .....................
    .....................
    .....................
    .....................
    .....................
    .....................
    .....................
    .....................
    .....................

    shift-up: 1

# Character: p
u+0070:
    ......................
    ......................
    ......................
    ......................
    ......................
    ......................
    ......................
    ......................
    ......................
    ......................
    ......................
    ..........@@.@@@@.....
    .........@.@@@@@@.....
    .........@.@.@.@@.....
    ........@...@..@@.....
    .......@@@.@...@@.@@..
    .......@@.@...@@.@@@..
    ........@@....@@@@@...
    .......@.@...@@@@@....
    .......@@..@@@@@@.....
    .......@@@@..@@@......
    ......@@.@@@@@........
    ......@@..............
    .....@................
    .....@@...............
    ....@@@...............
    ....@@................
    ....@@................
    ...@@.................
    ...@@.................
    ......................

    shift-up: 1

# Character: q
u+0071:
    .....................
    .....................
    .....................
    .....................
    .....................
    .....................
    .....................
    .....................
    .....................
    .....................
    .....................
    ............@@@@.....
    ..........@@@@@@.....
    .........@@@..@@.....
    ........@@...@@......
    .......@@.....@..@...
    ......@.@...@...@@...
    ......@@...@.@.@@@...
    ......@@..@..@@@@....
    ......@@.@@@@@@@.....
    ......@.@@@@@@@......
    .......@@.@@.@.......
    ..........@@.@.......
    .........@@@.........
    .........@@..........
    ........@@.@@........
    ........@@.@@........
    ........@@.@@........
    ........@.@@.........
    ........@@@@.........
    ........@@@..........

    shift-up: 1

# Character: r
u+0072:
    ....................
    ....................
    ....................
    ....................
    ....................
    ....................
    ....................
    ....................
    ....................
    ....................
    ...........@........
    ..........@.@.......
    ..........@.@@......
    .........@@@@@......
    ........@@..@@......
    .......@@....@..@...
    .......@@..@@..@@...
    ..........@@@.@@....
    ..........@@.@@@....
    ...........@@@@.....
    ..........@@@@......
    ....................
    ....................
    ....................
    ....................
    ....................
    ....................
    ....................
    ....................
    ....................
    ....................

    shift-up: 1

# Character: s
u+0073:
    ...................
    ...................
    ...................
    ...................
    ...................
    ...................
    ...................
    ...................
    ...................
    ...................
    ...................
    ..........@@.......
    .........@.........
    ........@..........
    ........@@.........
    .......@@@.....@...
    ......@@......@@...
    .....@@@.....@@....
    ....@@@..@.@@@.....
    ....@@@..@.@@......
    .....@@@@.@@.......
    ......@@@@.........
    ...................
    ...................
    ...................
    ...................
    ...................
    ...................
    ...................
    ...................
    ...................

    shift-up: 1

# Character: t
u+0074:
    ...................
    ...................
    ...................
    ...................
    ...................
    ...................
    ............@@.....
    ...........@.@.....
    ...........@@......
    ...........@@......
    ..........@@.......
    ........@@@@@@@....
    ........@@.@@@@....
    .........@@........
    ........@.@........
    .......@......@@...
    .......@@@....@@...
    ........@@...@@....
    ........@@..@@.....
    ........@@@@@......
    ........@..@.......
    ...................
    ...................
    ...................
    ...................
    ...................
    ...................
    ...................
    ...................
    ...................
    ...................

    shift-up: 1

# Character: u
u+0075:
    .......................
    .......................
    .......................
    .......................
    .......................
    .......................
    .......................
    .......................
    .......................
    .......................
    .......................
    ..........@.....@......
    .........@.@...@@......
    .........@@...@.@......
    ........@.@...@.@......
    .......@.@...@.@...@...
    .......@@@..@..@..@@...
    .......@....@@@..@@....
    .......@@..@@@@.@.@....
    .......@@@@@.@@@@@.....
    .......@..@..@@@@......
    .......................
    .......................
    .......................
    .......................
    .......................
    .......................
    .......................
    .......................
    .......................
    .......................

    shift-up: 1

# Character: v
u+0076:
    .........................
    .........................
    .........................
    .........................
    .........................
    .........................
    .........................
    .........................
    .........................
    .........................
    .........................
    ...........@@.....@......
    ..........@@.....@.@.....
    .........@@@@....@@......
    ........@@.@@...@@@......
    .......@@.@@@..@.@...@...
    .......@@.@@...@@@.@@@...
    ..........@@..@@@@@@@....
    .........@@..@@..@@@.....
    .........@@@@@...........
    .........@@.@............
    .........................
    .........................
    .........................
    .........................
    .........................
    .........................
    .........................
    .........................
    .........................
    .........................

    shift-up: 1

# Character: w
u+0077:
    ...........................
    ...........................
    ...........................
    ...........................
    ...........................
    ...........................
    ...........................
    ...........................
    ...........................
    ...........................
    ...........................
    ..........@@....@....@.....
    .........@.@...@@...@......
    .........@@...@.@...@@.....
    ........@.@...@@...@.@.....
    .......@.@...@.@...@@..@@..
    .......@@@...@@...@.@.@.@..
    .......@.@..@.@...@@@@@@...
    .......@@..@@@@..@@@@@@....
    .......@@.@@@@@.@@@........
    .......@..@..@..@@.........
    ........@@....@@...........
    ...........................
    ...........................
    ...........................
    ...........................
    ...........................
    ...........................
    ...........................
    ...........................
    ...........................

    shift-up: 1

# Character: x
u+0078:
    ........................
    ........................
    ........................
    ........................
    ........................
    ........................
    ........................
    ........................
    ........................
    ........................
    ........................
    ...........@@.....@@....
    .........@@@@@...@.@....
    .........@@.@@..@@@.....
    ........@@...@@@@.......
    .......@@......@...@@...
    .......@@...@.@....@@...
    ...........@@.@...@@....
    .........@@@..@..@@.....
    ........@@@..@@@@@......
    ........@@...@..@.......
    ........................
    ........................
    ........................
    ........................
    ........................
    ........................
    ........................
    ........................
    ........................
    ........................

    shift-up: 1

# Character: y
u+0079:
    ..........................
    ..........................
    ..........................
    ..........................
    ..........................
    ..........................
    ..........................
    ..........................
    ..........................
    ..........................
    ..........................
    ...........@@.............
    ..........@@.@....@@......
    .........@@@.@...@.@......
    ........@@.@@....@@.......
    .......@@..@@...@.@...@...
    .......@@..@@..@.....@@...
    ..........@@..@@@@..@@....
    ..........@@.@.@.@@@@.....
    ..........@@@@@@@@@@......
    ..........@.@@.@.@@.......
    ..............@.@.........
    ............@@.@..........
    ...........@.@.@..........
    ..........@@.@@...........
    .........@@..@@...........
    ........@@..@@............
    ........@@..@@............
    ........@@.@@.............
    ........@@@@@.............
    .........@@...............

    shift-up: 1

# Character: z
u+007a:
    .......................
    .......................
    .......................
    .......................
    .......................
    .......................
    .......................
    .......................
    .......................
    .......................
    .......................
    ...........@@@@........
    ..........@.@@@@.......
    .........@@@..@........
    ........@@....@........
    .......@@.....@@...@...
    .......@@....@.@..@@...
    .............@@..@@....
    ........@@@@@@.@@@.....
    ........@@@..@@@@......
    .......@..@@@@@@.......
    ........@@.@.@.........
    .........@@.@..........
    ........@.@@@..........
    .......@@@@............
    ......@@@.@@...........
    .....@@..@.@...........
    ....@@@..@@............
    ....@@..@@.............
    ....@.@@@@.............
    .....@@@...............

    shift-up: 1

# Character: {
u+007b:
    .......................
    ..................@@@@.
    .................@@@@@.
    ................@@.....
    ...............@@@.....
    ...............@@......
    ..............@........
    ..............@@.......
    ..............@@.......
    .............@@........
    .............@@........
    .............@@........
    ............@..........
    ............@@.........
    ...........@@@.........
    .........@@.@..........
    .........@@@...........
    ..........@............
    ..........@@...........
    ..........@@...........
    .........@@............
    .........@@............
    ........@@.............
    ........@@.............
    .......@@..............
    .......@@..............
    .......@@..............
    .......@...............
    .......@...............
    .......@@@@............
    .......@@@@............

    shift-up: 1

# Character: |
u+007c:
    .......................
    .......................
    ................@@.....
    ................@@.....
    ...............@.@.....
    ...............@@......
    ...............@@......
    ..............@@.......
    ..............@@.......
    .............@.........
    .............@@........
    ..............@........
    ............@@.........
    ............@@.........
    ...........@@..........
    ...........@@..........
    ............@..........
    ..........@@...........
    ..........@@...........
    .........@@............
    .........@@............
    ........@.@............
    ........@@.............
    ........@@.............
    .......@@..............
    .......@@..............
    ......@................
    ......@@...............
    ......@@...............
    .......................
    .......................

    shift-up: 1

# Character: }
u+007d:
    .......................
    ...............@@@@....
    ...............@@@.....
    ..................@....
    ..................@....
    .................@@....
    .................@@....
    .................@@....
    ................@@.....
    .................@.....
    ...............@@......
    ...............@@......
    ..............@@.......
    ..............@@.......
    ...............@.......
    ..............@@@......
    .............@.@@......
    ............@@@........
    ............@@.........
    .............@.........
    ...........@@..........
    ...........@@..........
    ...........@@..........
    ..........@@...........
    ..........@@...........
    .........@.@...........
    .........@@............
    ........@@@............
    ........@@.............
    ....@@@@@..............
    ....@@@@...............

    shift-up: 1

# Character: ~
u+007e:
    ..........................
    ..........................
    ..........................
    ..........................
    ..........................
    ..........................
    ..........................
    ..........................
    ..........................
    ..........................
    .........@@.@@.....@@.....
    .........@@.@@@....@@.....
    .........@....@@...@@.....
    ..............@@@@@@......
    .........@......@@@.......
    ..........................
    ..........................
    ..........................
    ..........................
    ..........................
    ..........................
    ..........................
    ..........................
    ..........................
    ..........................
    ..........................
    ..........................
    ..........................
    ..........................
    ..........................
    ..........................

    shift-up: 1

# Character: U+00A1
u+00a1:
    ...................
    ...................
    ...................
    ...................
    ...................
    ...................
    ...................
    ............@......
    ............@@.....
    ............@@.....
    ...................
    ...................
    ...................
    ..........@@.......
    .........@@@.......
    .........@@........
    ..........@........
    ........@@.........
    ........@@.........
    .......@@..........
    .......@@..........
    ......@.@..........
    ......@@...........
    ......@@...........
    .....@@............
    .....@@............
    .....@.............
    ...................
    ...................
    ...................
    ...................

    shift-up: 1

# Character: U+00A4
u+00a4:
    .......................
    .......................
    .......................
    .......................
    .......................
    ..........@@......@@@..
    ..........@@@@@@@@.@...
    ...........@@@@@.@@....
    ..........@@@...@@.....
    .........@.@.....@.....
    .........@@......@.....
    ..........@.....@@.....
    .........@@....@.@.....
    .........@@...@.@......
    ........@@@@@@@@@......
    .......@@@.@@@.@.@.....
    .......@@.......@@.....
    .......................
    .......................
    .......................
    .......................
    .......................
    .......................
    .......................
    .......................
    .......................
    .......................
    .......................
    .......................
    .......................
    .......................

    shift-up: 1

# Character: U+00A7
u+00a7:
    ..........................
    ................@@@@......
    ..............@@@@@@@@....
    .............@.@....@.@...
    .............@@......@@...
    ............@@.......@@...
    ............@@.......@@...
    ............@@.......@@...
    ...........@.@............
    ..........@@@@............
    .........@.@@@@...........
    .........@@..@@...........
    .........@@....@..........
    .........@@...@@..........
    .........@@....@@.........
    .........@@....@@.........
    ..........@@....@@........
    ..........@@....@@........
    ...........@@...@@........
    ...........@.@..@@........
    ............@@..@@........
    ............@.@.@@........
    .............@@@@.........
    ....@@.......@.@..........
    ....@@.......@@...........
    ....@@.......@@...........
    ....@@.......@@...........
    ....@.@.....@@............
    .....@.@@@@@@@............
    ......@@@@@@..............
    ..........................

    shift-up: 1

# Character: U+00A8
u+00a8:
    ...................
    ...................
    ...................
    ...........@@@.....
    ...........@@@@....
    ...................
    ...................
    ...................
    ...................
    ...................
    ...................
    ...................
    ...................
    ...................
    ...................
    ...................
    ...................
    ...................
    ...................
    ...................
    ...................
    ...................
    ...................
    ...................
    ...................
    ...................
    ...................
    ...................
    ...................
    ...................
    ...................

    shift-up: 1

# Character: U+00A9
u+00a9:
    ................................
    ..................@@@@@@........
    ................@@@@@@@@@@......
    ..............@@@@......@@@.....
    .............@@@.........@@.....
    ............@@@...@@@.....@@....
    ...........@@@..@@@@@@....@@....
    ..........@.@..@@@..@@....@@....
    ..........@@...@@...@@....@@....
    .........@@...@@...@@.....@@....
    .........@@...@@...@......@@....
    ..........@..@@............@....
    ........@@...@@..........@@.....
    ........@@...@@.....@@...@@.....
    ........@@...@@....@@@..@@......
    ........@@...@@@..@@@..@.@......
    ........@@....@.@.@@..@.@.......
    .........@@.....@@...@@@........
    .........@@.........@@@.........
    ..........@@@.....@@@@..........
    ...........@@@@@@@@@............
    .............@@@@@..............
    ................................
    ................................
    ................................
    ................................
    ................................
    ................................
    ................................
    ................................
    ................................

    shift-up: 1

# Character: U+00AA
u+00aa:
    ...................
    ...................
    ............@@@....
    ...........@@@@@@..
    ..........@@..@.@..
    .........@@...@@...
    .........@@..@.@...
    ............@@@....
    ...........@@@@....
    .........@@@@@@@...
    ..........@@..@....
    ...................
    ...................
    ...................
    ...................
    ...................
    ...................
    ...................
    ...................
    ...................
    ...................
    ...................
    ...................
    ...................
    ...................
    ...................
    ...................
    ...................
    ...................
    ...................
    ...................

    shift-up: 1

# Character: U+00AB
u+00ab:
    .....................
    .....................
    .....................
    .....................
    .....................
    .....................
    .....................
    .....................
    .....................
    .....................
    .....................
    ...........@@@@......
    ..........@@.@@......
    .........@.@@@.......
    .........@@@.@.......
    ........@@@@@........
    .........@@@.........
    .........@@@.........
    ........@@@..........
    ........@@.@.........
    ........@@.@@........
    ........@@.@.........
    .....................
    .....................
    .....................
    .....................
    .....................
    .....................
    .....................
    .....................
    .....................

    shift-up: 1

# Character: U+00AE
u+00ae:
    ................................
    ..................@@@@@@........
    ................@@@@@@@@@@......
    ..............@@@@......@@@.....
    .............@.@.........@@.....
    ............@@@.@@.@@.....@@....
    ...........@@@..@@@@@@....@@....
    ..........@.@...@.@.@@....@@....
    ..........@@...@.@..@@....@@....
    .........@@....@.@..@@....@@....
    .........@@.....@..@@.....@@....
    ........@.....@.@@@@@.....@@....
    ........@@....@.@@@......@@.....
    ........@@...@@@@........@@.....
    ........@@...@@@@@......@@......
    ........@@...@@.@@@@@@.@@@......
    ........@@..@@...@@@@@@.@.......
    ........@@@..........@@@........
    .........@@.........@@@.........
    ..........@@@.....@@@@..........
    ...........@@@@@@@@@............
    .............@@@@@..............
    ................................
    ................................
    ................................
    ................................
    ................................
    ................................
    ................................
    ................................
    ................................

    shift-up: 1

# Character: U+00B0
u+00b0:
    ..................
    ..................
    ..........@..@....
    .........@@@@@@...
    .........@@..@@...
    .........@@..@@...
    .........@.@@.@...
    ..........@@@@....
    ..................
    ..................
    ..................
    ..................
    ..................
    ..................
    ..................
    ..................
    ..................
    ..................
    ..................
    ..................
    ..................
    ..................
    ..................
    ..................
    ..................
    ..................
    ..................
    ..................
    ..................
    ..................
    ..................

    shift-up: 1

# Character: U+00B1
u+00b1:
    ........................
    ........................
    ........................
    ........................
    ........................
    ........................
    ........................
    ...............@@.......
    ..............@@........
    ..............@@........
    .............@..........
    .............@@.........
    ........@...............
    ........@@@@@@@@@@@.....
    ............@@..........
    ...........@@...........
    ...........@@...........
    ...........@@...........
    ........@@@@@@@@@.......
    .......@........@.......
    ........................
    ........................
    ........................
    ........................
    ........................
    ........................
    ........................
    ........................
    ........................
    ........................
    ........................

    shift-up: 1

# Character: U+00B2
u+00b2:
    .................
    .................
    ..........@..@...
    .........@@@@@@..
    .........@@..@@..
    ............@@...
    ............@@...
    ...........@@....
    .........@@@.....
    ........@..@@@...
    ........@@@@@@...
    .................
    .................
    .................
    .................
    .................
    .................
    .................
    .................
    .................
    .................
    .................
    .................
    .................
    .................
    .................
    .................
    .................
    .................
    .................
    .................

    shift-up: 1

# Character: U+00B3
u+00b3:
    .................
    ...........@@....
    ..........@@@@@..
    ..........@@.@@..
    .............@@..
    ..........@@@@@..
    ..........@@@@...
    ............@@...
    ........@@..@@...
    ........@@@@@@...
    .........@@@@....
    .................
    .................
    .................
    .................
    .................
    .................
    .................
    .................
    .................
    .................
    .................
    .................
    .................
    .................
    .................
    .................
    .................
    .................
    .................
    .................

    shift-up: 1

# Character: U+00B4
u+00b4:
    ...................
    ...................
    ..............@@...
    ............@@@....
    ...........@.@.....
    ...........@@......
    ...................
    ...................
    ...................
    ...................
    ...................
    ...................
    ...................
    ...................
    ...................
    ...................
    ...................
    ...................
    ...................
    ...................
    ...................
    ...................
    ...................
    ...................
    ...................
    ...................
    ...................
    ...................
    ...................
    ...................
    ...................

    shift-up: 1

# Character: U+00B6
u+00b6:
    .............................
    .............@@@...@@@.......
    ...........@@@@@@@.@@@@@.....
    ..........@@@...@@...@@@.....
    ..........@@...@@...@..@.....
    .........@.....@@...@@.......
    .........@@...@.....@@.......
    .........@@...@@...@@........
    .........@@....@...@@........
    ..........@@.@@...@..........
    ..........@.@@@...@@.........
    ...........@......@@.........
    ............@@...@@..........
    .............@...@@..........
    ...........@@...@............
    ...........@@...@@...........
    ..........@@....@@...........
    ..........@@...@@............
    ...........@...@@............
    .........@@...@@.............
    .........@@...@@.............
    ........@@.....@.............
    ........@@...@@..............
    .........@...@@..............
    .......@@...@@...............
    .......@@...@@...............
    .............................
    .............................
    .............................
    .............................
    .............................

    shift-up: 1

# Character: U+00B7
u+00b7:
    .................
    .................
    .................
    .................
    .................
    .................
    .................
    .................
    .................
    .................
    .........@@......
    .........@@......
    .................
    .................
    .................
    .................
    .................
    .................
    .................
    .................
    .................
    .................
    .................
    .................
    .................
    .................
    .................
    .................
    .................
    .................
    .................

    shift-up: 1

# Character: U+00B8
u+00b8:
    ....................
    ....................
    ....................
    ....................
    ....................
    ....................
    ....................
    ....................
    ....................
    ....................
    ....................
    ....................
    ....................
    ....................
    ....................
    ....................
    ....................
    ....................
    ....................
    ....................
    ............@@......
    ...........@@.......
    ..........@.@@......
    ..........@@@@......
    ............@@......
    ...........@@@......
    ........@@@@@.......
    ........@@@@........
    ....................
    ....................
    ....................

    shift-up: 1

# Character: U+00B9
u+00b9:
    .................
    .................
    ............@@...
    ...........@.@...
    ............@@...
    ...........@@@...
    ...........@@....
    ...........@@....
    ..........@@.....
    ..........@@.....
    ..........@@.....
    .................
    .................
    .................
    .................
    .................
    .................
    .................
    .................
    .................
    .................
    .................
    .................
    .................
    .................
    .................
    .................
    .................
    .................
    .................
    .................

    shift-up: 1

# Character: U+00BA
u+00ba:
    ...................
    ...................
    .............@@....
    ...........@@@@@...
    ..........@.@..@...
    ..........@@...@...
    .........@....@@...
    .........@@...@@...
    .........@@.@@@....
    ..........@@@@.....
    ...........@@......
    ...................
    ...................
    ...................
    ...................
    ...................
    ...................
    ...................
    ...................
    ...................
    ...................
    ...................
    ...................
    ...................
    ...................
    ...................
    ...................
    ...................
    ...................
    ...................
    ...................

    shift-up: 1

# Character: U+00BB
u+00bb:
    .....................
    .....................
    .....................
    .....................
    .....................
    .....................
    .....................
    .....................
    .....................
    .....................
    .....................
    ..........@@.@@......
    ..........@@.@@......
    ............@@@......
    ...........@@@@......
    ...........@@.@@.....
    ...........@@.@@.....
    ..........@.@@@......
    ..........@@@.@......
    .........@@.@@.......
    .........@@@@........
    .....................
    .....................
    .....................
    .....................
    .....................
    .....................
    .....................
    .....................
    .....................
    .....................

    shift-up: 1

# Character: U+00BC
u+00bc:
    ...........................
    .....................@@....
    ............@@......@.@....
    ...........@.@.....@@@.....
    ...........@.......@@......
    ...........@@.....@@.......
    ...........@@....@@@.......
    ..........@@....@@@........
    ..........@@....@@.........
    ...........@...@@..........
    .........@@...@@...........
    .............@.@...........
    .............@@....@@@.....
    ............@@....@@.@.....
    ...........@@....@@@@......
    ..........@@@...@@@@@......
    .........@@@...@@@@........
    .........@@...@..@@.@......
    ........@@.....@@@.@@......
    .......@@@.......@@........
    .......@@........@@........
    ...........................
    ...........................
    ...........................
    ...........................
    ...........................
    ...........................
    ...........................
    ...........................
    ...........................
    ...........................

    shift-up: 1

# Character: U+00BD
u+00bd:
    ...........................
    .....................@@....
    ............@@@......@@....
    ...........@........@@.....
    ............@@.....@.@.....
    .............@....@@@......
    ...........@@.....@@.......
    ...........@@....@@........
    ..........@.....@@@........
    ..........@@...@@@.........
    ..........@@...@@..........
    ..............@@...........
    .............@@@.@@@@......
    ............@.@.@.@@@@.....
    ............@@..@@..@@.....
    ...........@@....@..@@.....
    ..........@@.......@@......
    .........@@@......@.@......
    ........@@@......@@@.......
    ........@@......@.@@@......
    .......@@......@@@@.@......
    ...........................
    ...........................
    ...........................
    ...........................
    ...........................
    ...........................
    ...........................
    ...........................
    ...........................
    ...........................

    shift-up: 1

# Character: U+00BE
u+00be:
    ...........................
    ............@@........@@...
    ..........@@@.@......@@@...
    ..........@@.@.......@@....
    .............@@.....@@.....
    ..........@@@@@....@@......
    ..........@@@@....@.@......
    .............@@..@@@.......
    ........@@...@@..@@........
    ........@@@@@@..@@.........
    .........@@@@..@.@.........
    ..............@.@..........
    ..............@@....@@@....
    .............@@....@@.@....
    ............@@@...@@@@.....
    ...........@.@...@.@@@.....
    ...........@@...@@@@@......
    ..........@@...@.@@@@@.....
    .........@.@....@@@@@@.....
    ........@@@.......@@.......
    ........@@........@@.......
    ...........................
    ...........................
    ...........................
    ...........................
    ...........................
    ...........................
    ...........................
    ...........................
    ...........................
    ...........................

    shift-up: 1

# Character: U+00BF
u+00bf:
    .......................
    .......................
    .......................
    .......................
    .......................
    .......................
    .......................
    ...............@@......
    ...............@.......
    ................@......
    .......................
    .......................
    .......................
    .............@@........
    ............@@.........
    ..........@@@..........
    .........@@@...........
    ........@.@............
    .......@.@.............
    ......@.@..............
    ......@@......@........
    .....@@......@@........
    .....@@......@@........
    .....@@.......@........
    .....@@.....@@.........
    .....@@@..@@@..........
    ......@.@@@@...........
    .......................
    .......................
    .......................
    .......................

    shift-up: 1

# Character: U+00C6
u+00c6:
    ....................................
    ..................@@@@@@@.@@@@@.....
    ................@@@@@@@@@@.@@@@@....
    ..............@@@@.....@@.@....@@...
    .............@.@......@@@@.....@....
    ............@@@.......@@.@..........
    ...........@@@.......@.@@...........
    ..........@.@........@@@@...........
    .........@@@.........@@@............
    .........@@.........@@...@..........
    ........@@..........@@.@@@@@@.......
    ........@@.........@.@@.@@@@@@......
    .......@@.........@...@...@@@.......
    .......@@.........@.@@..............
    .......@@........@..@...............
    .......@........@..@............@...
    ...............@.@.............@@...
    ..............@@@@............@@@...
    .......@@....@@@.@.@.........@@@....
    .......@@...@@@.@.@@.......@@@@.....
    .......@@@@.@@..@@.@@@@@@@@.@.......
    .........@@@....@@..@@@@@@@.........
    ....................................
    ....................................
    ....................................
    ....................................
    ....................................
    ....................................
    ....................................
    ....................................
    ....................................

    shift-up: 1

# Character: U+00D0
u+00d0:
    ..............................
    .............@@@@@@@@.........
    ...........@@.@@@@@@@.@.......
    ..........@@@....@@..@@@......
    ..........@@....@@.....@@.....
    ..........@@....@@.....@.@....
    ..........@@...@@.......@@....
    ...............@@.......@@....
    ..............@@........@.....
    ..............@@........@.....
    .............@.@........@.....
    .........@@@@@.@@@@.....@@....
    .........@@@@@@@@@@.....@@....
    ............@@..........@@....
    ............@@.........@@.....
    ............@@.........@@.....
    ...........@@.........@@......
    ...........@@........@@@......
    .......@@@@@........@@@.......
    ......@@@@.@@.....@@@@........
    ......@@@@@@.@@@@.@@..........
    ......@@@@...@@@@.............
    ..............................
    ..............................
    ..............................
    ..............................
    ..............................
    ..............................
    ..............................
    ..............................
    ..............................

    shift-up: 1

# Character: U+00D7
u+00d7:
    .....................
    .....................
    .....................
    .....................
    .....................
    .....................
    .....................
    .........@@..........
    .........@@.....@@...
    ..........@@..@@@....
    ..........@..@@@.....
    ...........@@.@......
    ...........@.@.......
    .........@@@@@.......
    ........@@@..@@......
    .......@@@...@@......
    ........@.....@@.....
    .....................
    .....................
    .....................
    .....................
    .....................
    .....................
    .....................
    .....................
    .....................
    .....................
    .....................
    .....................
    .....................
    .....................

    shift-up: 1

# Character: U+00D8
u+00d8:
    .............................
    .................@@..@@.@@@..
    ...............@.@@.@@@@@@...
    ..............@@@...@@.@@....
    .............@@@...@@.@@@....
    ............@@@....@@@@@@.@@.
    ............@@.....@@@@@@@@@.
    ...........@@......@.@.@@@@..
    ...........@@.....@@@@@@.@...
    ..........@@.....@@@.@@@@....
    ..........@@.....@@....@@....
    ..........@@....@@....@@.....
    .........@@....@@.....@@.....
    .........@@...@@.....@@......
    .........@@..@.@.....@@......
    .........@@.@@@.....@@.......
    .........@@@@@.....@.@.......
    .........@.@@.....@@@........
    ...........@.....@.@.........
    .........@@@@...@.@..........
    ........@@.@.@@.@@...........
    ........@...@@@@.............
    .............................
    .............................
    .............................
    .............................
    .............................
    .............................
    .............................
    .............................
    .............................

    shift-up: 1

# Character: U+00DE
u+00de:
    .........................
    ..........@@@@@..........
    .........@@@@@.@.........
    ........@@@...@@.........
    ........@@...@@..@@@@....
    .............@@@@@@@.@...
    .............@@@@...@@...
    ............@@@@....@@...
    ............@.@.....@@...
    ...........@..@.....@@...
    ...........@.@......@@...
    ..........@.@......@.@...
    ..........@.@......@@....
    ..........@@......@@.....
    .........@@......@.@.....
    .........@@@@.@@@@@......
    ........@@@@...@@........
    ........@@...............
    .......@@@...............
    .......@@................
    .......@@................
    .......@.................
    .........................
    .........................
    .........................
    .........................
    .........................
    .........................
    .........................
    .........................
    .........................

    shift-up: 1

# Character: U+00DF
u+00df:
    ....................
    .............@@@@...
    ............@.@@@...
    ............@@..@...
    ...........@@@.@@...
    ...........@@..@@...
    ...........@@.@.@...
    ..........@@..@@....
    ..........@@.@@.....
    .........@@.@.@.....
    .........@@.@@......
    ........@@@@@.......
    ........@@.@@.......
    ........@@..........
    .......@@...@.......
    .......@@..@@...@...
    ......@@...@@..@@@..
    ......@@...@@.@.@...
    .......@...@@@.@....
    .....@@@...@@@@.....
    .....@@@@@@.@.......
    ....@@..@@@.........
    ....@@..............
    .....@..............
    ...@@...............
    ...@@...............
    ..@@................
    ..@@................
    ...@................
    ..@.................
    ....................

    shift-up: 1

# Character: U+00E6
u+00e6:
    ...........................
    ...........................
    ...........................
    ...........................
    ...........................
    ...........................
    ...........................
    ...........................
    ...........................
    ...........................
    ...........................
    ............@@@@..@@@......
    ..........@@@@@@.@@@@@.....
    .........@@@...@@@..@@.....
    ........@@@.....@..@@@.....
    .......@@@....@@@@@@@..@...
    .......@@@@@@@..@@@...@@@..
    ........@@@@.@.@.....@.@...
    ........@@..@@.@....@@@....
    ........@@.@.@@@..@@@@.....
    ........@..@@.@@@@.@.......
    ...........................
    ...........................
    ...........................
    ...........................
    ...........................
    ...........................
    ...........................
    ...........................
    ...........................
    ...........................

    shift-up: 1

# Character: U+00F0
u+00f0:
    ....................
    ....................
    ..............@@....
    ..............@@@@@.
    ...............@.@@.
    ..............@..@..
    ..............@@.@..
    ....................
    ...............@@...
    ...............@@...
    ...............@@...
    ............@@@@@...
    ..........@@@@@@....
    .........@@@..@@....
    ........@@...@@.....
    .......@@....@@.....
    ......@@@...@@......
    ......@@....@@......
    ......@@...@@.......
    ......@@.@@@........
    ......@.@.@.........
    ....................
    ....................
    ....................
    ....................
    ....................
    ....................
    ....................
    ....................
    ....................
    ....................

    shift-up: 1

# Character: U+00F7
u+00f7:
    .......................
    .......................
    .......................
    .......................
    .......................
    .......................
    .......................
    .......................
    .............@.........
    ..............@........
    .............@@........
    .......................
    ........@@@@@@@@@@.....
    ........@@@@@@@@@@.....
    .......................
    ............@..........
    ...........@.@.........
    .......................
    .......................
    .......................
    .......................
    .......................
    .......................
    .......................
    .......................
    .......................
    .......................
    .......................
    .......................
    .......................
    .......................

    shift-up: 1

# Character: U+00F8
u+00f8:
    .....................
    .....................
    .....................
    .....................
    .....................
    .....................
    .....................
    .....................
    .....................
    .....................
    .....................
    ..........@@@@@@@....
    .........@@@@@.@@....
    ........@@@@@@.......
    .......@.@@@@@@......
    .......@@.@.@@@..@...
    ......@@@@@@@@@.@@...
    ......@@@.@@@@@@@....
    ......@@.@.@.@@@.....
    ......@.@.@.@@@......
    .....@@@@@@@.........
    .....@@.@@...........
    .....................
    .....................
    .....................
    .....................
    .....................
    .....................
    .....................
    .....................
    .....................

    shift-up: 1

# Character: U+00FE
u+00fe:
    ......................
    ...............@@@....
    ..............@.@.....
    ..............@@@.....
    .............@@.@@....
    .............@@@@@....
    ............@@@@@.....
    ............@@@@......
    ...........@@@@@......
    ...........@@.@.......
    ..........@..@........
    ..........@.@@@@@.....
    .........@@@@@@@@.....
    .........@@@@..@@.....
    ........@..@...@@.....
    .......@@.@@..@...@...
    .......@@.@...@@.@@...
    ........@@...@@@@.@...
    .......@@...@@@@.@....
    .......@@..@@@@@@.....
    ......@@@@@...@@......
    ......@@.@@@@.........
    .......@..............
    .....@@...............
    .....@@...............
    ....@@................
    ....@@................
    ...@.@................
    ...@@.................
    ...@@.................
    ......................

    shift-up: 1

# Character: U+0111
u+0111:
    ......................
    ......................
    ......................
    ..................@@..
    ..................@@..
    .................@@...
    ..............@@@@@@@.
    ..............@@@.@@@.
    ................@@....
    ................@@....
    ...............@@.....
    ...........@@@@@@.....
    ..........@@@@@.......
    .........@@@..@@......
    ........@@...@.@......
    .......@@....@@...@@..
    ......@.@...@.@..@.@..
    ......@@....@...@@@...
    ......@@...@@@.@@@....
    ......@@.@@@@@@@@.....
    ......@.@.@.@..@......
    ......................
    ......................
    ......................
    ......................
    ......................
    ......................
    ......................
    ......................
    ......................
    ......................

    shift-up: 1

# Character: U+0122
u+0122:
    .................@@@...........
    ................@@@@...........
    ...............@...@...........
    ...............@@.@@......@@...
    ...............@.@@@...@@@.@...
    ................@..@@@@.@@@@...
    .................@@@@@@...@@...
    ................@@.......@@....
    ...............@.@.......@@....
    ...............@@........@@....
    ..............@@........@......
    .............@.@........@@.....
    ............@@@........@.@.....
    ............@@.........@@......
    ...........@@.........@.@......
    ..........@@..........@@...@@..
    .........@@@@........@@...@@@..
    ........@@@.@.@@....@@@..@@@...
    .......@@.@@@@@@@@.@@@..@@@....
    .....@@@...@@@.@@...@@@@@@.....
    ...@@@@.....@.@@@@@@@@@@.......
    ...@@@.......@@@@..............
    .............@@................
    .............@@................
    ..............@................
    ............@@.................
    ............@..................
    ...............................
    ...............................
    ...............................
    ...............................

    shift-up: 1

# Character: U+0126
u+0126:
    .............................
    ..........@@@@@.........@@...
    ........@@@@@@..........@@...
    ........@@...@.........@.@...
    ........@@...@@........@@....
    ..........@@@.@@@@@@@@@.@@@..
    ..........@@@@@@@@@@@@@@@@@..
    ............@@........@@.....
    ...........@.........@@......
    ...........@@........@@......
    ...........@@.......@.@......
    ..........@@@@@@@@@@.@.......
    ..........@.@@@@@@@@@@.......
    .........@.@.......@@........
    .........@@........@@........
    ..........@........@@....@...
    ........@@........@@....@@...
    ........@@........@@...@@@...
    .......@@.........@@..@@@....
    .......@@.........@@@@@@.....
    ........@.........@..@.......
    .............................
    .............................
    .............................
    .............................
    .............................
    .............................
    .............................
    .............................
    .............................
    .............................

    shift-up: 1

# Character: U+0127
u+0127:
    .......................
    ...............@@@.....
    ..............@.@......
    ..............@@@.@....
    ............@@.@..@....
    .............@@@@@.....
    ............@@@@@......
    ............@@@@.......
    ...........@@@@........
    ...........@@.@........
    .............@.........
    ..........@.@@@@.......
    .........@@@@@@@@......
    .........@@@@..@@......
    ........@..@....@......
    .......@@.@...@@...@...
    .......@@.@...@@..@@...
    ........@@...@@..@@@...
    .......@@....@@.@.@....
    .......@@....@@@@@.....
    .......@@....@@@@......
    .......@......@........
    .......................
    .......................
    .......................
    .......................
    .......................
    .......................
    .......................
    .......................
    .......................

    shift-up: 1

# Character: U+0131
u+0131:
    .................
    .................
    .................
    .................
    .................
    .................
    .................
    .................
    .................
    .................
    .................
    ..........@@.....
    ..........@@.....
    .........@.......
    ........@.@......
    .......@.....@...
    .......@@@..@.@..
    .......@.@.@@@...
    .......@@.@.@....
    .......@@@.@.....
    .......@@.@......
    ........@........
    .................
    .................
    .................
    .................
    .................
    .................
    .................
    .................
    .................

    shift-up: 1

# Character: U+0132
u+0132:
    ............................
    ..........@@@@@.............
    .........@@@@@@@........@@..
    ........@@....@@........@@..
    ........@@....@@.......@.@..
    .............@@........@@...
    .............@@.......@.@...
    .............@@.......@@....
    ............@@.......@.@....
    ............@@......@.......
    ...........@@.......@.@.....
    ...........@@......@..@.....
    ..........@.@......@.@......
    ..........@@......@@.@......
    ..........@@.....@.@@.......
    .........@@.....@@@@@...@@..
    .........@@....@@@@@...@.@..
    ..........@....@@.@@..@.@...
    ........@....@@@.@@..@.@....
    ........@@..@@@..@@@@@@.....
    .........@@@@@..@@@.@.......
    ..........@@....@.@@........
    ..............@.@@..........
    ............@@@@@...........
    ..........@.@@@@............
    ........@@@@..@@............
    .......@@@...@@.............
    .......@@...@@..............
    ........@..@@@..............
    .......@@@@@@...............
    ........@@@.................

    shift-up: 1

# Character: U+0133
u+0133:
    .......................
    .......................
    .......................
    .......................
    .......................
    .......................
    .......................
    ............@@.........
    ............@.....@@...
    ............@@....@@...
    .......................
    ..........@@....@@.....
    .........@@@....@@.....
    .........@@....@.@.....
    ........@.@...@.@......
    .......@.@...@@@@..@...
    .......@@@..@@@@@.@@...
    .......@@@.@.@@@.@@....
    .......@@.@@@.@@@@.....
    .......@@@.@.@@@@......
    .......@@@@..@.@.......
    ........@...@.@........
    ..........@@.@.........
    .........@@@.@.........
    ........@.@@@..........
    .......@@@@@@..........
    .......@@.@@...........
    ......@.@@@@...........
    ......@@.@@............
    ......@@@@.............
    .......@@@.............

    shift-up: 1

# Character: U+013F
u+013f:
    ............................
    .....................@..@...
    ....................@@@@....
    ...................@@..@....
    .........@........@@..@@@...
    ........@@........@@.@.@....
    .........@@@@....@.@@@@.....
    ..........@@@.....@@@.......
    .............@@@@.@.........
    ................@@..........
    ................@@@@@.......
    ...............@@.@@@.......
    ...............@@...........
    ..............@.............
    ..............@@............
    ........@@....@@........@@..
    ......@.@.@@.@@........@.@..
    .....@@@..@@@.@.......@@@...
    .....@@....@@.@......@@@....
    .....@@...@@@@@@@...@@@.....
    .....@.@@@@@...@@.@@@@......
    ......@@@@.......@@@........
    ............................
    ............................
    ............................
    ............................
    ............................
    ............................
    ............................
    ............................
    ............................

    shift-up: 1

# Character: U+0140
u+0140:
    ..................
    ..............@@@.
    ..............@@@@
    .............@@@.@
    ............@@@@@.
    ............@@@@@.
    .............@@@..
    ...........@@@@...
    ...........@@@@...
    ..........@@@@....
    ..........@.@@@...
    .........@..@@@...
    .........@.@......
    .........@@.......
    ........@@........
    .......@.@....@...
    .......@.@...@@...
    .......@....@@....
    .......@@..@@.....
    .......@@.@@......
    .......@@@@.......
    ..................
    ..................
    ..................
    ..................
    ..................
    ..................
    ..................
    ..................
    ..................
    ..................

    shift-up: 1

# Character: U+0141
u+0141:
    ............................
    .....................@..@...
    ....................@@@@....
    ...................@@..@....
    .........@........@@..@@@...
    ........@@........@@.@.@....
    .........@@@@....@.@@@@.....
    ..........@@@.....@@@.......
    .............@@@@.@.........
    ................@@.@........
    ................@@@.@.......
    ...............@.@@@........
    .............@@.@...........
    ...........@@@@.@...........
    ...........@@.@@............
    ........@@....@@........@@..
    ......@.@.@@.@@........@.@..
    .....@@@..@@@.@.......@@@...
    .....@@....@@@@......@@@....
    .....@@...@@@@@@@...@@@.....
    .....@.@@@@@...@@.@@@@......
    ......@@@@.......@@@........
    ............................
    ............................
    ............................
    ............................
    ............................
    ............................
    ............................
    ............................
    ............................

    shift-up: 1

# Character: U+0142
u+0142:
    ..................
    ..............@@@.
    ..............@@@@
    .............@@@.@
    ............@@@@@@
    ............@@@.@@
    ...........@...@..
    .........@@.@@@...
    .........@@.@.@...
    ..........@@@@....
    ..........@.@.....
    .........@..@.....
    .........@.@......
    .........@@.......
    ........@.........
    .......@.@....@...
    .......@.@...@@...
    .......@....@@....
    .......@@..@@.....
    .......@@.@@......
    .......@@@@.......
    ..................
    ..................
    ..................
    ..................
    ..................
    ..................
    ..................
    ..................
    ..................
    ..................

    shift-up: 1

# Character: U+014A
u+014a:
    ...........................
    ..........@@@@@....@@.@....
    .........@.@@@.@.@@@@@@@...
    ........@@...@.@@@@...@@...
    ........@@...@@@.@....@@...
    .............@@.@.....@@...
    ............@..@.....@.....
    ............@.@......@@....
    .............@.......@@....
    ...........@.@......@@.....
    ...........@@.......@@.....
    ..........@@.........@.....
    ..........@@.......@@......
    .........@@........@@......
    .........@@.......@@.......
    .........@@.......@@...@...
    ........@@.........@..@@...
    ........@@.......@@..@@@...
    .......@@........@@.@@@....
    .......@@.......@@@@@......
    ........@.......@..@.......
    .......@.......@.@.........
    .............@@.@..........
    ............@@@@@..........
    ...........@.@@@...........
    ..........@@@.@@...........
    .........@.@...@...........
    .........@@..@@............
    .........@@.@.@............
    .........@@@@@.............
    ..........@@@..............

    shift-up: 1

# Character: U+014B
u+014b:
    ..........................
    ..........................
    ..........................
    ..........................
    ..........................
    ..........................
    ..........................
    ..........................
    ..........................
    ..........................
    ..........................
    ...........@@...@@@.......
    ..........@@@@@@@@.@......
    .........@@.@@@@...@......
    ........@@.@.@@..@@.......
    .......@@..@.@...@@...@...
    .......@@..@@....@@..@@...
    ..........@.@...@@..@@....
    ..........@@....@@@@@.....
    .........@.@...@@@@@......
    .........@@....@.@@.......
    ..............@.@.........
    ............@@.@..........
    ...........@@@@@..........
    ..........@@@@@...........
    .........@@@.@@...........
    ........@@@.@@@...........
    ........@@..@@............
    ........@@.@.@............
    ........@@@@@.............
    .........@@@..............

    shift-up: 1

# Character: U+0152
u+0152:
    ....................................
    ...............@@@..@.....@@@@@.....
    .............@@@@.@@@@...@@@@@@@....
    ............@@@...@@.@..@@@....@@...
    ...........@@@...@@..@@.@@.....@@...
    ...........@@....@@..@@@............
    ..........@@.....@@..@@@@...........
    ..........@@.....@.@.@@@@...........
    .........@@.......@@@.@@............
    .........@@.........@@..@@..........
    ........@...........@@..@@@@@@......
    ........@@..........@@@.@@@@@@......
    ........@@.........@.@@@..@@@@......
    ........@@.........@.@..............
    ........@@.........@@...............
    ........@@........@@............@@..
    ........@@.......@.@...........@.@..
    ........@@......@@.@..........@.@...
    ........@.@....@@@@@.........@.@....
    .........@@@..@@@.@@@......@@@@.....
    ..........@...@@...@.@@@@@@.@@......
    ............@@......@@@@@@@@........
    ....................................
    ....................................
    ....................................
    ....................................
    ....................................
    ....................................
    ....................................
    ....................................
    ....................................

    shift-up: 1

# Character: U+0153
u+0153:
    .........................
    .........................
    .........................
    .........................
    .........................
    .........................
    .........................
    .........................
    .........................
    .........................
    .........................
    ..........@@@@@.@@@@.....
    .........@@@@@@@@@@@.....
    ........@@@.@@.@@.@@.....
    .......@@@.@.@.@.@@......
    .......@@..@@@@@.@...@@..
    ......@.@..@@.@@@...@@@..
    ......@@....@......@@@...
    ......@@...@.@....@@@....
    ......@@..@@@@@.@@@@.....
    .......@@@@@.@@@.@@......
    ........@@....@@.........
    .........................
    .........................
    .........................
    .........................
    .........................
    .........................
    .........................
    .........................
    .........................

    shift-up: 1

# Character: U+0166
u+0166:
    ....................
    ........@@@@@@@.....
    .......@@@@@@@.@@@@@
    ......@@.......@@@@@
    ......@@.......@@...
    ......@@@.....@@....
    ........@..@@@@@@@..
    ...........@@@.@@@..
    .............@@.....
    .............@@.....
    ............@@......
    ............@@......
    ...........@@.......
    ...........@@.......
    ...........@@.......
    ..........@@........
    ..........@@........
    .........@@.........
    .........@@.........
    ........@.@.........
    ........@@..........
    ....................
    ....................
    ....................
    ....................
    ....................
    ....................
    ....................
    ....................
    ....................
    ....................

    shift-up: 1

# Character: U+0167
u+0167:
    ...................
    ...................
    ...................
    ...................
    ...................
    ...................
    ............@@.....
    ...........@.@.....
    ...........@@......
    ...........@@......
    ..........@@.......
    ........@@@@@@@....
    ........@@.@@@@....
    .......@@@@@@@@....
    .......@..@@@@@....
    .......@......@@...
    .......@@@....@@...
    ........@@...@@....
    ........@@..@@.....
    ........@@@@@......
    ........@..@.......
    ...................
    ...................
    ...................
    ...................
    ...................
    ...................
    ...................
    ...................
    ...................
    ...................

    shift-up: 1

# Character: U+02C7
u+02c7:
    ...................
    ...................
    .........@@...@@...
    .........@@@.@.@...
    ..........@@@@@....
    ...........@@......
    ...................
    ...................
    ...................
    ...................
    ...................
    ...................
    ...................
    ...................
    ...................
    ...................
    ...................
    ...................
    ...................
    ...................
    ...................
    ...................
    ...................
    ...................
    ...................
    ...................
    ...................
    ...................
    ...................
    ...................
    ...................

    shift-up: 1

# Character: U+02D8
u+02d8:
    ...................
    ...................
    ..........@@..@@...
    ..........@@..@@...
    ..........@@@@@@...
    ...........@@@.....
    ...................
    ...................
    ...................
    ...................
    ...................
    ...................
    ...................
    ...................
    ...................
    ...................
    ...................
    ...................
    ...................
    ...................
    ...................
    ...................
    ...................
    ...................
    ...................
    ...................
    ...................
    ...................
    ...................
    ...................
    ...................

    shift-up: 1

# Character: U+02D9
u+02d9:
    ...................
    ...................
    ...................
    ............@@.....
    ............@@.....
    ...................
    ...................
    ...................
    ...................
    ...................
    ...................
    ...................
    ...................
    ...................
    ...................
    ...................
    ...................
    ...................
    ...................
    ...................
    ...................
    ...................
    ...................
    ...................
    ...................
    ...................
    ...................
    ...................
    ...................
    ...................
    ...................

    shift-up: 1

# Character: U+02DA
u+02da:
    ...................
    ............@@.....
    ...........@@@@....
    ..........@@.......
    ..........@@.@@....
    ..........@.@.@....
    ...........@@......
    ...................
    ...................
    ...................
    ...................
    ...................
    ...................
    ...................
    ...................
    ...................
    ...................
    ...................
    ...................
    ...................
    ...................
    ...................
    ...................
    ...................
    ...................
    ...................
    ...................
    ...................
    ...................
    ...................
    ...................

    shift-up: 1

# Character: U+02DB
u+02db:
    .....................
    .....................
    .....................
    .....................
    .....................
    .....................
    .....................
    .....................
    .....................
    .....................
    .....................
    .....................
    .....................
    .....................
    .....................
    .....................
    .....................
    .....................
    .....................
    .....................
    ...........@@.@......
    ..........@@@@.......
    ..........@@.........
    .........@@..........
    .........@@..........
    .........@.@@@.......
    ..........@@@@.......
    .....................
    .....................
    .....................
    .....................

    shift-up: 1

# Character: U+02DC
u+02dc:
    ...................
    ...................
    ..........@@@..@@..
    .........@.@.@.@@..
    .........@@.@@@@...
    .........@@..@@....
    ...................
    ...................
    ...................
    ...................
    ...................
    ...................
    ...................
    ...................
    ...................
    ...................
    ...................
    ...................
    ...................
    ...................
    ...................
    ...................
    ...................
    ...................
    ...................
    ...................
    ...................
    ...................
    ...................
    ...................
    ...................

    shift-up: 1

# Character: U+02DD
u+02dd:
    ...................
    ...................
    ............@@@@@@.
    ...........@.@@@@..
    ..........@@@@@@...
    .........@@.@@@....
    ...................
    ...................
    ...................
    ...................
    ...................
    ...................
    ...................
    ...................
    ...................
    ...................
    ...................
    ...................
    ...................
    ...................
    ...................
    ...................
    ...................
    ...................
    ...................
    ...................
    ...................
    ...................
    ...................
    ...................
    ...................

    shift-up: 1

# Character: U+0394
u+0394:
    ..........................
    ..........................
    .................@@.......
    ................@.@.......
    ...............@.@@.......
    ...............@@@@.......
    ..............@@.@@.......
    .............@.@.@@.......
    .............@@..@........
    ............@@.....@......
    ...........@.@....@@......
    ...........@@.....@@......
    ..........@@......@@......
    .........@.@......@@......
    .........@@.......@@......
    ........@@........@@......
    .......@@@.........@@.....
    .......@@..........@@.....
    ......@@...........@@.....
    .....@@@@@@@@@@@@@@@@.....
    .....@@@@@@@@@@@@@@@@.....
    ..........................
    ..........................
    ..........................
    ..........................
    ..........................
    ..........................
    ..........................
    ..........................
    ..........................
    ..........................

    shift-up: 1

# Character: U+03A9
u+03a9:
    ................................
    ..............@@@...@@@.........
    .............@.@@....@@@@.......
    ............@@@........@@@......
    ...........@@...........@@......
    ..........@.@...........@.@.....
    ..........@@.............@@.....
    .........@@@.............@@.....
    .........@@..............@@.....
    .........@@..............@@.....
    .........@@..............@@.....
    .........@@.............@.@.....
    .........@@.............@@......
    .........@@..............@......
    .........@@............@@.......
    ..........@@..........@.@.......
    ..........@@..........@@........
    ............@........@@.........
    ...........@@.......@.@.........
    .........@@@@@.....@.@@@........
    ........@....@....@.....@.......
    ................................
    ................................
    ................................
    ................................
    ................................
    ................................
    ................................
    ................................
    ................................
    ................................

    shift-up: 1

# Character: U+03C0
u+03c0:
    ........................
    ........................
    ........................
    ........................
    ........................
    ........................
    ........................
    ........................
    ........................
    ........................
    ........................
    .........@@@@@@@@@@.....
    ........@@@@@@@@.@@@....
    .......@@..@@..@@.......
    .......@@.@@..@.@.......
    ..........@@..@@........
    .........@.@...@........
    .........@@..@@..@@.....
    ........@@...@@.@@@.....
    .......@.@...@@@.@......
    ......@@@....@@@@.......
    ........................
    ........................
    ........................
    ........................
    ........................
    ........................
    ........................
    ........................
    ........................
    ........................

    shift-up: 1

# Character: U+2018
u+2018:
    ..................
    ...........@......
    ..........@@......
    .........@........
    .........@........
    .........@@.......
    ..................
    ..................
    ..................
    ..................
    ..................
    ..................
    ..................
    ..................
    ..................
    ..................
    ..................
    ..................
    ..................
    ..................
    ..................
    ..................
    ..................
    ..................
    ..................
    ..................
    ..................
    ..................
    ..................
    ..................
    ..................

    shift-up: 1

# Character: U+2019
u+2019:
    ..................
    .............@@...
    .............@....
    .............@@...
    ............@@@...
    ............@@....
    ..................
    ..................
    ..................
    ..................
    ..................
    ..................
    ..................
    ..................
    ..................
    ..................
    ..................
    ..................
    ..................
    ..................
    ..................
    ..................
    ..................
    ..................
    ..................
    ..................
    ..................
    ..................
    ..................
    ..................
    ..................

    shift-up: 1

# Character: U+201C
u+201c:
    ....................
    ...........@@@@.....
    ..........@@@@@.....
    ..........@@@@......
    ...........@.@......
    ..........@.@@......
    ....................
    ....................
    ....................
    ....................
    ....................
    ....................
    ....................
    ....................
    ....................
    ....................
    ....................
    ....................
    ....................
    ....................
    ....................
    ....................
    ....................
    ....................
    ....................
    ....................
    ....................
    ....................
    ....................
    ....................
    ....................

    shift-up: 1

# Character: U+201D
u+201d:
    ....................
    ..............@@@@..
    ..............@.@...
    ..............@@@@..
    .............@@@@@..
    .............@@@@...
    ....................
    ....................
    ....................
    ....................
    ....................
    ....................
    ....................
    ....................
    ....................
    ....................
    ....................
    ....................
    ....................
    ....................
    ....................
    ....................
    ....................
    ....................
    ....................
    ....................
    ....................
    ....................
    ....................
    ....................
    ....................

    shift-up: 1

# Character: U+2020
u+2020:
    ..........................
    ..........................
    ...................@@.....
    ..................@@......
    ..................@@......
    .................@.@......
    .................@@.......
    .................@@.......
    ............@@@@@@@@@@....
    ............@@@@@@@@@@....
    ...............@@.........
    ...............@@.........
    ...............@@.........
    ..............@@..........
    ..............@@..........
    .............@@...........
    .............@@...........
    ..............@...........
    ............@@............
    ............@@............
    ...........@@.............
    ...........@@.............
    ..........@...............
    ..........@@..............
    ..........@@..............
    .........@@...............
    .........@@...............
    ........@.................
    ........@@................
    ..........................
    ..........................

    shift-up: 1

# Character: U+2021
u+2021:
    ..........................
    ..........................
    ...................@@.....
    ...................@@.....
    ..................@@@.....
    ..................@@......
    ..................@@......
    .................@@.......
    .............@@@@@@@@@@...
    .............@@@@.@@@@@...
    ................@@........
    .................@........
    ...............@@.........
    ...............@@.........
    ..............@@..........
    ..............@@..........
    ...............@..........
    .............@@...........
    .............@@...........
    ............@@............
    ............@@............
    ........@@@@.@@@@@........
    ........@@@@@@@@@.........
    ...........@@.............
    ..........@@..............
    ..........@@..............
    .........@................
    .........@@...............
    .........@@...............
    ..........................
    ..........................

    shift-up: 1

# Character: U+2022
u+2022:
    ..................
    ..................
    ..................
    ..................
    ..................
    ..................
    ..................
    ..........@@......
    ........@.@@@.....
    ........@@..@@....
    .........@..@@....
    ........@@..@@....
    ........@@@@@.....
    ..................
    ..................
    ..................
    ..................
    ..................
    ..................
    ..................
    ..................
    ..................
    ..................
    ..................
    ..................
    ..................
    ..................
    ..................
    ..................
    ..................
    ..................

    shift-up: 1

# Character: U+2026
u+2026:
    .........................
    .........................
    .........................
    .........................
    .........................
    .........................
    .........................
    .........................
    .........................
    .........................
    .........................
    .........................
    .........................
    .........................
    .........................
    .........................
    .........................
    .........................
    .........................
    .......@@...@@..@@.......
    .......@@...@@..@@.......
    .........................
    .........................
    .........................
    .........................
    .........................
    .........................
    .........................
    .........................
    .........................
    .........................

    shift-up: 1

# Character: U+2030
u+2030:
    ...................................
    ...........@@@@.....@@.............
    ..........@.@@@@...@.@.............
    ..........@.@.@@..@.@..............
    .........@@@@@@@@.@................
    .........@@.@@.@@@@@...............
    ........@@....@@.@@................
    ........@@...@@..@@................
    ........@@...@@.@@.................
    ........@@..@@.@.@.................
    .........@@@@..@@..@@......@@......
    .........@@@..@@..@.@@...@.@@@.....
    ..............@@.@@@.@@.@.@.@@.....
    .............@@.@@@..@@.@@..@@.....
    .............@@.@@...@@@@...@@.....
    ............@@...@...@@@@...@@.....
    ...........@@@.@@...@@@@....@@.....
    ...........@@..@@...@@@....@@......
    ..........@@...@@..@.@@....@@......
    ..........@@...@.@@@@..@@@@@.......
    ..........@.....@..@...@..@........
    ...................................
    ...................................
    ...................................
    ...................................
    ...................................
    ...................................
    ...................................
    ...................................
    ...................................
    ...................................

    shift-up: 1

# Character: U+2039
u+2039:
    ..................
    ..................
    ..................
    ..................
    ..................
    ..................
    ..................
    ..................
    ..................
    ..................
    ..................
    ...........@@.....
    ..........@@......
    .........@.@......
    .........@@.......
    ........@@........
    .........@........
    .........@........
    ........@@........
    ........@@........
    ........@@........
    ........@@........
    ..................
    ..................
    ..................
    ..................
    ..................
    ..................
    ..................
    ..................
    ..................

    shift-up: 1

# Character: U+203A
u+203a:
    ..................
    ..................
    ..................
    ..................
    ..................
    ..................
    ..................
    ..................
    ..................
    ..................
    ..................
    ...........@@.....
    ...........@@.....
    ...........@@.....
    ............@@....
    ............@@....
    ............@@....
    ...........@@@....
    ...........@@.....
    ..........@@......
    .........@@@......
    ..................
    ..................
    ..................
    ..................
    ..................
    ..................
    ..................
    ..................
    ..................
    ..................

    shift-up: 1

# Character: U+20AC
u+20ac:
    .......................
    ...............@@@@@...
    ..............@@@@@@...
    .............@@@...@...
    ............@@@....@...
    ............@@....@@...
    ...........@@..........
    ..........@@@..........
    ..........@@...........
    ........@..............
    ........@@@@@@@@.......
    ...............@.......
    ........@.@............
    ........@@.............
    ........@@.............
    ........@@.............
    ........@@.............
    ........@@.....@@......
    .........@@...@.@......
    .........@@..@.@.......
    ..........@@@@@........
    ...........@@..........
    .......................
    .......................
    .......................
    .......................
    .......................
    .......................
    .......................
    .......................
    .......................

    shift-up: 1

# Character: U+2122
u+2122:
    .......................
    .......................
    ............@@@@@@@....
    .............@@@@@@....
    ............@@@.@......
    ............@@@@@@.....
    ............@.@@@@.....
    .......................
    .......................
    .......................
    .......................
    .......................
    .......................
    .......................
    .......................
    .......................
    .......................
    .......................
    .......................
    .......................
    .......................
    .......................
    .......................
    .......................
    .......................
    .......................
    .......................
    .......................
    .......................
    .......................
    .......................

    shift-up: 1

# Character: U+2202
u+2202:
    .......................
    .............@@@@......
    ..............@@@@.....
    ................@@.....
    .................@@....
    .................@@....
    .................@@....
    .................@@....
    .................@@....
    ................@@.....
    ................@@.....
    ...........@@@@.@@.....
    ..........@.@@@@.......
    .........@@@..@.@......
    ........@@....@@@......
    ........@@....@@.......
    .......@@....@.@.......
    .......@@...@@@........
    .......@@...@@.........
    .......@@.@@@..........
    ........@..@...........
    .......................
    .......................
    .......................
    .......................
    .......................
    .......................
    .......................
    .......................
    .......................
    .......................

    shift-up: 1

# Character: U+220F
u+220f:
    ...............................
    ............@@@@@@@@@@@@@@@@@..
    ............@@@@@@@@@@@@@@@@@..
    ..............@@........@.@....
    ..............@@........@@.....
    .............@.@........@@.....
    .............@@........@@......
    .............@@........@@......
    ............@@........@........
    ............@@........@@.......
    ...........@@.........@@.......
    ...........@@........@@........
    ...........@@........@@........
    ..........@@........@@.........
    ..........@@........@@.........
    .........@@........@@..........
    .........@@........@@..........
    ........@@@........@@..........
    ........@@........@@...........
    ........@@........@@...........
    .......@@........@@............
    .......@@........@@............
    ......@@.........@@............
    ......@@........@@.............
    ......@@........@@.............
    .....@@........@@..............
    .....@@........@@..............
    ....@@........@.@..............
    .....@.........@...............
    ...............................
    ...............................

    shift-up: 1

# Character: U+2211
u+2211:
    ........................
    ..........@@@@@@@@@@@@..
    ..........@@@@@@@@@@@@..
    ..........@@............
    ...........@@...........
    ...........@@...........
    ............@@..........
    ............@@..........
    .............@@.........
    .............@@.........
    ..............@@........
    ..............@@........
    ..............@.........
    .............@.@........
    ............@.@.........
    ...........@@@..........
    ...........@@...........
    ..........@@............
    .........@@.............
    ........@@..............
    .......@@...............
    ......@@@...............
    .....@.@@@@@@@@@@@......
    .....@@@@@@@@@@@@@......
    ........................
    ........................
    ........................
    ........................
    ........................
    ........................
    ........................

    shift-up: 1

# Character: U+221A
u+221a:
    ......................@..
    .....................@@..
    .....................@@..
    ....................@@...
    ....................@@...
    ...................@@....
    ...................@@....
    ..................@@.....
    ..................@@.....
    .................@@......
    ...........@.....@@......
    .........@@@....@@.......
    ........@.@.....@@.......
    ........@@..@..@@........
    ...........@@..@@........
    ...........@@.@.@........
    ...........@@.@@.........
    ...........@@@@@.........
    ...........@@@@..........
    ...........@..@..........
    .............@...........
    ............@@...........
    .........................
    .........................
    .........................
    .........................
    .........................
    .........................
    .........................
    .........................
    .........................

    shift-up: 1

# Character: U+221E
u+221e:
    ....................................
    ....................................
    ....................................
    ....................................
    ....................................
    ....................................
    ....................................
    ....................................
    ............@@@@........@@@@@.......
    ...........@.@@.@@....@@.@@@.@......
    ..........@@@...@@@..@@@....@@......
    ..........@@......@@@@@.............
    ..........@@......@@.@..............
    ..........@@.....@.@@@@.....@.......
    ..........@@@..@@@@...@@@..@@@......
    ...........@.@@@@......@@.@.@.......
    .............@@..........@@@........
    ....................................
    ....................................
    ....................................
    ....................................
    ....................................
    ....................................
    ....................................
    ....................................
    ....................................
    ....................................
    ....................................
    ....................................
    ....................................
    ....................................

    shift-up: 1

# Character: U+222B
u+222b:
    ...................
    ...............@@..
    ..............@@@..
    .............@@....
    .............@@....
    ............@@.....
    ............@@.....
    ............@@.....
    ...........@@......
    ...........@@......
    ...........@@......
    ..........@@.......
    ..........@@.......
    ...........@.......
    .........@@........
    .........@@........
    .........@@........
    ........@@.........
    ........@@.........
    .......@@..........
    .......@@..........
    ......@@...........
    ....@.@............
    ...................
    ...................
    ...................
    ...................
    ...................
    ...................
    ...................
    ...................

    shift-up: 1

# Character: U+2248
u+2248:
    .........................
    .........................
    .........................
    .........................
    .........................
    .........................
    .........................
    .........................
    .........@@.@@.....@@....
    ........@@@.@.@....@@....
    ........@@...@@@..@@.....
    ........@@....@.@@.@.....
    ........@@@@@..@@@@@@....
    ........@@@@@@.....@@....
    ........@@...@@...@@.....
    ........@@....@@@@.@.....
    ........@@.....@@@@......
    .........................
    .........................
    .........................
    .........................
    .........................
    .........................
    .........................
    .........................
    .........................
    .........................
    .........................
    .........................
    .........................
    .........................

    shift-up: 1

# Character: U+2260
u+2260:
    ........................
    ........................
    ........................
    ........................
    ........................
    ................@@......
    ...............@@.......
    ...............@@.......
    ..............@@........
    ..........@@@@@@@@@@....
    ..........@@@@@@@@@@....
    .............@@.........
    ........@@@@@.@@@@......
    ........@@@@@@@@@@......
    ...........@@...........
    ...........@@...........
    ..........@.............
    ..........@@............
    ..........@@............
    ........................
    ........................
    ........................
    ........................
    ........................
    ........................
    ........................
    ........................
    ........................
    ........................
    ........................
    ........................

    shift-up: 1

# Character: U+2264
u+2264:
    ......................
    ......................
    ......................
    ......................
    ......................
    ......................
    ......................
    ...............@@.....
    ..............@@@.....
    ............@@@@......
    ...........@@@........
    .........@.@@.........
    ........@.@...........
    .........@.@@.........
    ..........@@@@........
    ............@@@@......
    ..............@@@.....
    ................@.....
    ........@@@@@@@@@.....
    .......@@@@@@@@@@.....
    ......................
    ......................
    ......................
    ......................
    ......................
    ......................
    ......................
    ......................
    ......................
    ......................
    ......................

    shift-up: 1

# Character: U+2265
u+2265:
    ......................
    ......................
    ......................
    ......................
    ......................
    ......................
    ......................
    .........@@...........
    .........@@@..........
    ..........@@@@........
    ............@@@@......
    ..............@.@.....
    ...............@.@....
    .............@@.@.....
    ............@@@@......
    ..........@@@@........
    .........@@@..........
    .........@............
    ........@@@@@@@@@.....
    .......@@@@@@@@@@.....
    ......................
    ......................
    ......................
    ......................
    ......................
    ......................
    ......................
    ......................
    ......................
    ......................
    ......................

    shift-up: 1

# Character: U+25CA
u+25ca:
    ................@@........
    ...............@.@........
    ...............@@@........
    ..............@@.@@.......
    .............@@..@@.......
    ............@@@..@@.......
    ............@@.....@......
    ...........@@.....@@......
    ..........@@......@@......
    .........@.@.......@@.....
    .........@@........@@.....
    ...........@......@@@.....
    ..........@@......@@......
    ..........@@.....@@.......
    ..........@@....@@........
    ...........@@..@.@........
    ...........@@..@@.........
    ...........@@.@@..........
    ............@@.@..........
    ............@.@...........
    ............@@............
    ..........................
    ..........................
    ..........................
    ..........................
    ..........................
    ..........................
    ..........................
    ..........................
    ..........................
    ..........................

    shift-up: 1

# Character: U+25CF
u+25cf:
    .....................
    .....................
    .....................
    .....................
    .....................
    .....................
    .....................
    .....................
    .....................
    .....................
    .....................
    .....................
    .....................
    .....................
    .......@@.@..........
    .......@..@..........
    .......@..@..........
    ........@@...........
    .....................
    .....................
    .....................
    .....................
    .....................
    .....................
    .....................
    .....................
    .....................
    .....................
    .....................
    .....................
    .....................

    shift-up: 1
